<?xml version="1.0" encoding="UTF-8" standalone="no"?>
<svg
   xmlns:dc="http://purl.org/dc/elements/1.1/"
   xmlns:cc="http://creativecommons.org/ns#"
   xmlns:rdf="http://www.w3.org/1999/02/22-rdf-syntax-ns#"
   xmlns:svg="http://www.w3.org/2000/svg"
   xmlns="http://www.w3.org/2000/svg"
   xmlns:sodipodi="http://sodipodi.sourceforge.net/DTD/sodipodi-0.dtd"
   xmlns:inkscape="http://www.inkscape.org/namespaces/inkscape"
   inkscape:version="1.0 (4035a4fb49, 2020-05-01)"
   height="12.801173"
   width="14.208511"
   sodipodi:docname="icon_without_background.svg"
   id="svg26"
   xml:space="preserve"
   viewBox="0 0 14.208511 12.801174"
   y="0px"
   x="0px"
   version="1.1"><metadata
   id="metadata32"><rdf:RDF><cc:Work
       rdf:about=""><dc:format>image/svg+xml</dc:format><dc:type
         rdf:resource="http://purl.org/dc/dcmitype/StillImage" /><dc:title></dc:title></cc:Work></rdf:RDF></metadata><defs
   id="defs30" /><sodipodi:namedview
   inkscape:current-layer="svg26"
   inkscape:window-maximized="1"
   inkscape:window-y="-8"
   inkscape:window-x="-8"
   inkscape:cy="7.3834082"
   inkscape:cx="4.9114239"
   inkscape:zoom="42.731634"
   showgrid="false"
   id="namedview28"
   inkscape:window-height="1002"
   inkscape:window-width="1920"
   inkscape:pageshadow="2"
   inkscape:pageopacity="0"
   guidetolerance="10"
   gridtolerance="10"
   objecttolerance="10"
   borderopacity="1"
   bordercolor="#666666"
   pagecolor="#ffffff" />
<style
   id="style2"
   type="text/css">
	.st0{stroke:#000000;stroke-width:0.25;stroke-miterlimit:10;}
	.st1{fill-rule:evenodd;clip-rule:evenodd;fill:#FF9099;}
	.st2{fill-rule:evenodd;clip-rule:evenodd;fill:#FFFFFF;}
	.st3{fill-rule:evenodd;clip-rule:evenodd;fill:#EEEEEE;}
	.st4{fill:#DDDDDD;}
	.st5{fill-rule:evenodd;clip-rule:evenodd;fill:url(#path10_1_);}
</style>


<g
   transform="translate(0.11170213,0.11170294)"
   style="display:inline;fill:#000000;fill-opacity:1;stroke:#000000;stroke-opacity:1"
   id="g895"><g
     style="fill:#000000;fill-opacity:1;stroke:#000000;stroke-opacity:1"
     transform="translate(-0.80425534,-0.62553649)"
     sodipodi:docname="icon_without_background.svg"
     inkscape:version="1.0 (4035a4fb49, 2020-05-01)"
     inkscape:export-ydpi="3276.8"
     inkscape:export-xdpi="3276.8"
     inkscape:export-filename="Z:\Documents\GitHub\Sav22999\common-voice-android\images\icon.png"
     id="g893">
	
		<sodipodi:namedview
   showgrid="false"
   pagecolor="#ffffff"
   objecttolerance="10"
   inkscape:zoom="31.466668"
   inkscape:window-y="-8"
   inkscape:window-x="-8"
   inkscape:window-width="1920"
   inkscape:window-maximized="1"
   inkscape:window-height="1002"
   inkscape:pageshadow="2"
   inkscape:pageopacity="0"
   inkscape:document-rotation="0"
   inkscape:cy="8.3696844"
   inkscape:cx="3.5426949"
   inkscape:current-layer="svg6"
   id="namedview871"
   guidetolerance="10"
   gridtolerance="10"
   borderopacity="1"
   bordercolor="#666666">
		</sodipodi:namedview>
	
		<g
   style="fill:#000000;fill-opacity:1;stroke:#000000;stroke-opacity:1"
   sodipodi:insensitive="true"
   inkscape:label="Face"
   inkscape:export-ydpi="1638.4"
   inkscape:export-xdpi="1638.4"
   transform="matrix(0.22340426,0,0,0.22340589,-0.15638298,-0.24574648)"
   id="g891">
		<path
   style="fill:#000000;fill-opacity:1;stroke:#000000;stroke-opacity:1"
   d="M 53.8,19.8 53.1,8.5 53.3,8.3 C 53.8,7.8 54,7.1 54,6.1 54,4.8 52.9,3.9 51.5,3.9 c -1.3,0 -2.4,1.1 -2.4,2.2 0,1 0.2,1.7 0.8,2.2 l 0.2,0.2 -0.5,11.3 z m -41.3,6.9 c -4.5,0 -8.2,3.7 -8.2,8.4 v 6.8 c 0,4.6 3.7,8.4 8.2,8.4 h 46.2 c 4.5,0 8.2,-3.7 8.2,-8.4 v -6.8 c 0,-4.6 -3.7,-8.4 -8.2,-8.4 z"
   class="st1"
   inkscape:label="ears and antenna"
   inkscape:connector-curvature="0"
   id="path873" />
		<path
   style="fill:#000000;fill-opacity:1;stroke:#000000;stroke-opacity:1"
   d="M 49.8,17.6 H 21.4 c -7.5,0 -13.6,6.2 -13.6,13.8 v 11.3 c 0,8.1 5.8,15 13.7,16.3 9.3,1.6 18.9,1.6 28.2,0 7.9,-1.3 13.7,-8.2 13.7,-16.3 V 31.3 c 0,-7.6 -6.1,-13.7 -13.6,-13.7 z"
   class="st2"
   inkscape:label="external face"
   inkscape:connector-curvature="0"
   id="path875" />
		<g
   style="fill:#000000;fill-opacity:1;stroke:#000000;stroke-opacity:1"
   id="g881">
			<path
   style="fill:#000000;fill-opacity:1;stroke:#000000;stroke-opacity:1"
   d="M 46.3,22.2 H 24.9 c -5.8,0 -10,3.7 -10,9.1 v 11.9 c 0,5.9 4.3,10.8 10.1,11.5 7,0.8 14.1,0.8 21.2,0 C 51.9,54 56.3,49.1 56.3,43.2 V 31.3 c 0,-5.4 -4.3,-9.1 -10,-9.1 z"
   class="st3"
   inkscape:label="internal face"
   inkscape:connector-curvature="0"
   id="path877" />
			<path
   style="fill:#000000;fill-opacity:1;stroke:#000000;stroke-opacity:1"
   id="path879"
   d="M 35.5,55.4 C 32,55.4 28.4,55.2 24.9,54.8 19.1,54.1 14.7,49.1 14.7,43.2 V 31.3 c 0,-5.4 4.2,-9.2 10.1,-9.2 h 21.4 c 5.9,0 10.2,3.9 10.2,9.2 v 11.9 c 0,5.9 -4.4,10.9 -10.2,11.6 -3.5,0.4 -7.1,0.6 -10.7,0.6 z M 24.9,22.3 c -5.8,0 -9.9,3.7 -9.9,9 v 11.9 c 0,5.8 4.3,10.7 10,11.3 7,0.8 14.1,0.8 21.2,0 5.7,-0.7 10,-5.6 10,-11.3 V 31.3 c 0,-5.2 -4.1,-9 -9.9,-9 z"
   class="st4" />
		</g>
		
			<linearGradient
   gradientTransform="matrix(0.04990851,0,0,0.04990887,-1461.9448,-1523.6473)"
   y2="31292.525"
   x2="29769.275"
   y1="31292.525"
   x1="29743.049"
   gradientUnits="userSpaceOnUse"
   id="linearGradient887">
			<stop
   id="stop883"
   style="stop-color:#646464"
   offset="0" />
			<stop
   id="stop885"
   style="stop-color:#222222"
   offset="1" />
		</linearGradient>
		<path
   style="fill:#000000;fill-opacity:1;stroke:#000000;stroke-opacity:1"
   d="m 27.3,42.2 h 16.3 c 0,0 -0.8,5.4 -8,5.4 -6.8,0 -8.3,-5.4 -8.3,-5.4 z m 0.6,-13.3 c -0.3,0.3 -0.5,0.7 -0.5,1.1 0,0.8 0.6,1.4 1.4,1.4 0.5,0 1,-0.3 1.2,-0.7 0.3,0.6 0.5,1.3 0.5,2.1 0,2.2 -1.8,4.1 -4,4.1 -2.2,0 -4,-1.8 -4,-4.1 0,-2.3 1.8,-4.1 4,-4.1 0.5,0 0.9,0.1 1.4,0.2 z m 18.1,0 c -0.2,0.3 -0.4,0.6 -0.4,1 0,0.8 0.6,1.5 1.4,1.5 0.5,0 0.9,-0.2 1.2,-0.6 0.3,0.6 0.5,1.3 0.5,2.1 0,2.2 -1.8,4.1 -4,4.1 -2.2,0 -4,-1.8 -4,-4.1 0,-2.3 1.8,-4.1 4,-4.1 0.5,-0.1 0.9,0 1.3,0.1 z"
   class="st5"
   inkscape:label="eyes and mouth"
   inkscape:connector-curvature="0"
   id="path889" />
	</g>
</g></g><g
   transform="translate(0.11170213,0.11170294)"
   style="display:inline"
   id="g921"><g
     inkscape:label="g919"
     id="g919"
     inkscape:export-filename="Z:\Documents\GitHub\Sav22999\common-voice-android\images\icon.png"
     inkscape:export-xdpi="3276.8"
     inkscape:export-ydpi="3276.8"
     inkscape:version="1.0 (4035a4fb49, 2020-05-01)"
     sodipodi:docname="icon_without_background.svg"
     transform="translate(-0.80425534,-0.62553649)">
	
		<sodipodi:namedview
   bordercolor="#666666"
   borderopacity="1"
   gridtolerance="10"
   guidetolerance="10"
   id="namedview897"
   inkscape:current-layer="svg6"
   inkscape:cx="3.5426949"
   inkscape:cy="8.3696844"
   inkscape:document-rotation="0"
   inkscape:pageopacity="0"
   inkscape:pageshadow="2"
   inkscape:window-height="1002"
   inkscape:window-maximized="1"
   inkscape:window-width="1920"
   inkscape:window-x="-8"
   inkscape:window-y="-8"
   inkscape:zoom="31.466668"
   objecttolerance="10"
   pagecolor="#ffffff"
   showgrid="false">
		</sodipodi:namedview>
	
		<g
   id="g917"
   transform="matrix(0.22340426,0,0,0.22340589,-0.15638298,-0.24574648)"
   inkscape:export-xdpi="1638.4"
   inkscape:export-ydpi="1638.4"
   inkscape:label="Face"
   sodipodi:insensitive="true">
		<path
   id="path899"
   inkscape:connector-curvature="0"
   inkscape:label="ears and antenna"
   class="st1"
   d="M 53.8,19.8 53.1,8.5 53.3,8.3 C 53.8,7.8 54,7.1 54,6.1 54,4.8 52.9,3.9 51.5,3.9 c -1.3,0 -2.4,1.1 -2.4,2.2 0,1 0.2,1.7 0.8,2.2 l 0.2,0.2 -0.5,11.3 z m -41.3,6.9 c -4.5,0 -8.2,3.7 -8.2,8.4 v 6.8 c 0,4.6 3.7,8.4 8.2,8.4 h 46.2 c 4.5,0 8.2,-3.7 8.2,-8.4 v -6.8 c 0,-4.6 -3.7,-8.4 -8.2,-8.4 z" />
		<path
   id="path901"
   inkscape:connector-curvature="0"
   inkscape:label="external face"
   class="st2"
   d="M 49.8,17.6 H 21.4 c -7.5,0 -13.6,6.2 -13.6,13.8 v 11.3 c 0,8.1 5.8,15 13.7,16.3 9.3,1.6 18.9,1.6 28.2,0 7.9,-1.3 13.7,-8.2 13.7,-16.3 V 31.3 c 0,-7.6 -6.1,-13.7 -13.6,-13.7 z" />
		<g
   id="g907">
			<path
   id="path903"
   inkscape:connector-curvature="0"
   inkscape:label="internal face"
   class="st3"
   d="M 46.3,22.2 H 24.9 c -5.8,0 -10,3.7 -10,9.1 v 11.9 c 0,5.9 4.3,10.8 10.1,11.5 7,0.8 14.1,0.8 21.2,0 C 51.9,54 56.3,49.1 56.3,43.2 V 31.3 c 0,-5.4 -4.3,-9.1 -10,-9.1 z" />
			<path
   class="st4"
   d="M 35.5,55.4 C 32,55.4 28.4,55.2 24.9,54.8 19.1,54.1 14.7,49.1 14.7,43.2 V 31.3 c 0,-5.4 4.2,-9.2 10.1,-9.2 h 21.4 c 5.9,0 10.2,3.9 10.2,9.2 v 11.9 c 0,5.9 -4.4,10.9 -10.2,11.6 -3.5,0.4 -7.1,0.6 -10.7,0.6 z M 24.9,22.3 c -5.8,0 -9.9,3.7 -9.9,9 v 11.9 c 0,5.8 4.3,10.7 10,11.3 7,0.8 14.1,0.8 21.2,0 5.7,-0.7 10,-5.6 10,-11.3 V 31.3 c 0,-5.2 -4.1,-9 -9.9,-9 z"
   id="path905" />
		</g>
		
			<linearGradient
   id="linearGradient913"
   gradientUnits="userSpaceOnUse"
   x1="29743.049"
   y1="31292.525"
   x2="29769.275"
   y2="31292.525"
   gradientTransform="matrix(0.04990851,0,0,0.04990887,-1461.9448,-1523.6473)">
			<stop
   offset="0"
   style="stop-color:#646464"
   id="stop909" />
			<stop
   offset="1"
   style="stop-color:#222222"
   id="stop911" />
		</linearGradient>
		<path
   id="path915"
   inkscape:connector-curvature="0"
   inkscape:label="eyes and mouth"
   class="st5"
   d="m 27.3,42.2 h 16.3 c 0,0 -0.8,5.4 -8,5.4 -6.8,0 -8.3,-5.4 -8.3,-5.4 z m 0.6,-13.3 c -0.3,0.3 -0.5,0.7 -0.5,1.1 0,0.8 0.6,1.4 1.4,1.4 0.5,0 1,-0.3 1.2,-0.7 0.3,0.6 0.5,1.3 0.5,2.1 0,2.2 -1.8,4.1 -4,4.1 -2.2,0 -4,-1.8 -4,-4.1 0,-2.3 1.8,-4.1 4,-4.1 0.5,0 0.9,0.1 1.4,0.2 z m 18.1,0 c -0.2,0.3 -0.4,0.6 -0.4,1 0,0.8 0.6,1.5 1.4,1.5 0.5,0 0.9,-0.2 1.2,-0.6 0.3,0.6 0.5,1.3 0.5,2.1 0,2.2 -1.8,4.1 -4,4.1 -2.2,0 -4,-1.8 -4,-4.1 0,-2.3 1.8,-4.1 4,-4.1 0.5,-0.1 0.9,0 1.3,0.1 z"
   style="fill:#000000;fill-opacity:1" />
	</g>
</g></g></svg>
