<?xml version="1.0" encoding="UTF-8" standalone="no"?>
<svg
   xmlns:dc="http://purl.org/dc/elements/1.1/"
   xmlns:cc="http://creativecommons.org/ns#"
   xmlns:rdf="http://www.w3.org/1999/02/22-rdf-syntax-ns#"
   xmlns:svg="http://www.w3.org/2000/svg"
   xmlns="http://www.w3.org/2000/svg"
   xmlns:sodipodi="http://sodipodi.sourceforge.net/DTD/sodipodi-0.dtd"
   xmlns:inkscape="http://www.inkscape.org/namespaces/inkscape"
   width="30"
   height="30"
   viewBox="0 0 40 40"
   version="1.1"
   id="svg6"
   sodipodi:docname="speak.svg"
   inkscape:version="0.92.4 (5da689c313, 2019-01-14)">
  <metadata
     id="metadata12">
    <rdf:RDF>
      <cc:Work
         rdf:about="">
        <dc:format>image/svg+xml</dc:format>
        <dc:type
           rdf:resource="http://purl.org/dc/dcmitype/StillImage" />
      </cc:Work>
    </rdf:RDF>
  </metadata>
  <defs
     id="defs10" />
  <sodipodi:namedview
     pagecolor="#ffffff"
     bordercolor="#666666"
     borderopacity="1"
     objecttolerance="10"
     gridtolerance="10"
     guidetolerance="10"
     inkscape:pageopacity="0"
     inkscape:pageshadow="2"
     inkscape:window-width="1536"
     inkscape:window-height="801"
     id="namedview8"
     showgrid="false"
     inkscape:zoom="15.733333"
     inkscape:cx="9.2579854"
     inkscape:cy="12.433836"
     inkscape:window-x="-8"
     inkscape:window-y="-8"
     inkscape:window-maximized="1"
     inkscape:current-layer="g4" />
  <circle
     style="opacity:1;fill:#ff505f;fill-opacity:1;stroke:none;stroke-width:30;stroke-linecap:butt;stroke-linejoin:miter;stroke-miterlimit:4;stroke-dasharray:none;stroke-dashoffset:0;stroke-opacity:1;paint-order:normal"
     id="path814"
     cx="20"
     cy="20"
     r="20" />
  <g
     id="g4"
     transform="translate(10.666667,6)"
     style="fill:#ffffff;fill-opacity:1;fill-rule:evenodd;stroke:none;stroke-width:0;stroke-opacity:1">
    <g
       id="icon-/-play"
       style="fill:#ffffff;fill-opacity:1;stroke:none;stroke-opacity:1"
       transform="matrix(0.71427296,0,0,0.71427296,2.6666663,4.0003571)">
      <path
         id="speak-button"
         d="M 9.333,18.667 A 4.68,4.68 0 0 0 14,14 V 4.667 A 4.68,4.68 0 0 0 9.333,0 4.68,4.68 0 0 0 4.667,4.667 V 14 a 4.68,4.68 0 0 0 4.666,4.667 z M 7,4.667 A 2.34,2.34 0 0 1 9.333,2.333 2.34,2.34 0 0 1 11.667,4.667 V 14 A 2.34,2.34 0 0 1 9.333,16.333 2.34,2.34 0 0 1 7,14 Z m 11.667,7 V 14 c 0,4.783 -3.617,8.633 -8.167,9.217 v 2.45 H 14 c 0.7,0 1.167,0.466 1.167,1.166 C 15.167,27.533 14.7,28 14,28 H 4.667 C 3.967,28 3.5,27.533 3.5,26.833 c 0,-0.7 0.467,-1.166 1.167,-1.166 h 3.5 v -2.45 C 3.617,22.633 0,18.667 0,14 v -2.333 c 0,-0.7 0.467,-1.167 1.167,-1.167 0.7,0 1.166,0.467 1.166,1.167 V 14 c 0,3.85 3.15,7 7,7 3.85,0 7,-3.15 7,-7 v -2.333 c 0,-0.7 0.467,-1.167 1.167,-1.167 0.7,0 1.167,0.467 1.167,1.167 z"
         inkscape:connector-curvature="0"
         style="fill:#ffffff;fill-opacity:1;stroke:none;stroke-opacity:1" />
    </g>
  </g>
</svg>
