<?xml version="1.0" encoding="UTF-8" standalone="no"?>
<svg
   xmlns:dc="http://purl.org/dc/elements/1.1/"
   xmlns:cc="http://creativecommons.org/ns#"
   xmlns:rdf="http://www.w3.org/1999/02/22-rdf-syntax-ns#"
   xmlns:svg="http://www.w3.org/2000/svg"
   xmlns="http://www.w3.org/2000/svg"
   xmlns:sodipodi="http://sodipodi.sourceforge.net/DTD/sodipodi-0.dtd"
   xmlns:inkscape="http://www.inkscape.org/namespaces/inkscape"
   width="30"
   height="30"
   viewBox="0 0 28 28"
   version="1.1"
   id="svg14"
   sodipodi:docname="stop.svg"
   inkscape:version="0.92.4 (5da689c313, 2019-01-14)">
  <defs
     id="defs9" />
  <metadata
     id="metadata18">
    <rdf:RDF>
      <cc:Work
         rdf:about="">
        <dc:format>image/svg+xml</dc:format>
        <dc:type
           rdf:resource="http://purl.org/dc/dcmitype/StillImage" />
      </cc:Work>
    </rdf:RDF>
  </metadata>
  <sodipodi:namedview
     pagecolor="#ffffff"
     bordercolor="#666666"
     borderopacity="1"
     objecttolerance="10"
     gridtolerance="10"
     guidetolerance="10"
     inkscape:pageopacity="0"
     inkscape:pageshadow="2"
     inkscape:window-width="1536"
     inkscape:window-height="801"
     id="namedview16"
     showgrid="false"
     inkscape:zoom="7.8666667"
     inkscape:cx="-23.389831"
     inkscape:cy="15"
     inkscape:window-x="-8"
     inkscape:window-y="-8"
     inkscape:window-maximized="1"
     inkscape:current-layer="svg14" />
  <circle
     style="opacity:1;fill:#ffffff;fill-opacity:1;stroke:none;stroke-width:21;stroke-linecap:butt;stroke-linejoin:miter;stroke-miterlimit:4;stroke-dasharray:none;stroke-dashoffset:0;stroke-opacity:1;paint-order:normal"
     id="path814"
     cx="14"
     cy="14"
     r="14" />
  <g
     transform="matrix(0.40000571,0,0,0.40000571,9.3333333,9.3333334)"
     id="g12"
     style="fill:#ff505f;fill-opacity:1;fill-rule:evenodd">
    <g
       id="g10"
       style="fill:#ff505f;fill-opacity:1">
      <path
         id="stop-path10"
         d="M 19.833,0 H 3.5 C 1.517,0 0,1.517 0,3.5 v 16.333 c 0,1.984 1.517,3.5 3.5,3.5 h 16.333 c 1.984,0 3.5,-1.516 3.5,-3.5 V 3.5 C 23.333,1.517 21.817,0 19.833,0 Z M 21,19.833 C 21,20.533 20.533,21 19.833,21 H 3.5 C 2.8,21 2.333,20.533 2.333,19.833 V 3.5 C 2.333,2.8 2.8,2.333 3.5,2.333 H 19.833 C 20.533,2.333 21,2.8 21,3.5 Z"
         inkscape:connector-curvature="0" />
    </g>
  </g>
</svg>
