<?xml version="1.0" encoding="UTF-8" standalone="no"?>
<svg
   xmlns:dc="http://purl.org/dc/elements/1.1/"
   xmlns:cc="http://creativecommons.org/ns#"
   xmlns:rdf="http://www.w3.org/1999/02/22-rdf-syntax-ns#"
   xmlns:svg="http://www.w3.org/2000/svg"
   xmlns="http://www.w3.org/2000/svg"
   xmlns:sodipodi="http://sodipodi.sourceforge.net/DTD/sodipodi-0.dtd"
   xmlns:inkscape="http://www.inkscape.org/namespaces/inkscape"
   sodipodi:docname="airplane_mode.svg"
   height="100%"
   width="100%"
   inkscape:version="1.0 (4035a4fb49, 2020-05-01)"
   version="1.1"
   id="svg2"
   viewBox="0 -256 1792 1792">
  <metadata
     id="metadata12">
    <rdf:RDF>
      <cc:Work
         rdf:about="">
        <dc:format>image/svg+xml</dc:format>
        <dc:type
           rdf:resource="http://purl.org/dc/dcmitype/StillImage" />
      </cc:Work>
    </rdf:RDF>
  </metadata>
  <defs
     id="defs10" />
  <sodipodi:namedview
     inkscape:document-rotation="0"
     inkscape:current-layer="svg2"
     inkscape:window-maximized="1"
     inkscape:window-y="-8"
     inkscape:window-x="-8"
     inkscape:cy="896"
     inkscape:cx="896"
     inkscape:zoom="0.13169643"
     showgrid="false"
     id="namedview8"
     inkscape:window-height="1002"
     inkscape:window-width="1920"
     inkscape:pageshadow="2"
     inkscape:pageopacity="0"
     guidetolerance="10"
     gridtolerance="10"
     objecttolerance="10"
     borderopacity="1"
     bordercolor="#666666"
     pagecolor="#ffffff" />
  <g
     style="fill:#000000;fill-opacity:1"
     id="g4"
     transform="matrix(1,0,0,-1,205.01695,1330.9831)">
    <path
       style="fill:#000000;fill-opacity:1"
       inkscape:connector-curvature="0"
       id="path6"
       d="m 1397,1324 q 0,-87 -149,-236 l -240,-240 143,-746 1,-6 q 0,-14 -9,-23 L 1079,9 q -9,-9 -23,-9 -21,0 -29,18 L 753,593 508,348 Q 576,110 576,96 576,82 567,73 L 503,9 Q 494,0 480,0 462,0 452,16 L 297,296 17,451 q -17,9 -17,28 0,14 9,23 l 64,65 q 9,9 23,9 14,0 252,-68 L 593,753 18,1027 q -18,8 -18,29 0,14 9,23 l 64,64 q 9,9 23,9 4,0 6,-1 l 746,-143 240,240 q 149,149 236,149 32,0 52.5,-20.5 20.5,-20.5 20.5,-52.5 z" />
  </g>
</svg>
