<?xml version="1.0" encoding="UTF-8" standalone="no"?>
<svg
   xmlns:dc="http://purl.org/dc/elements/1.1/"
   xmlns:cc="http://creativecommons.org/ns#"
   xmlns:rdf="http://www.w3.org/1999/02/22-rdf-syntax-ns#"
   xmlns:svg="http://www.w3.org/2000/svg"
   xmlns="http://www.w3.org/2000/svg"
   xmlns:sodipodi="http://sodipodi.sourceforge.net/DTD/sodipodi-0.dtd"
   xmlns:inkscape="http://www.inkscape.org/namespaces/inkscape"
   inkscape:version="1.0 (4035a4fb49, 2020-05-01)"
   sodipodi:docname="dark_mode.svg"
   id="svg8"
   preserveAspectRatio="xMidYMid meet"
   viewBox="0 0 1049.000000 1280.000000"
   height="1280.000000pt"
   width="1049.000000pt"
   version="1.0">
  <defs
     id="defs12" />
  <sodipodi:namedview
     inkscape:current-layer="svg8"
     inkscape:window-maximized="1"
     inkscape:window-y="-8"
     inkscape:window-x="-8"
     inkscape:cy="853.33333"
     inkscape:cx="699.33333"
     inkscape:zoom="0.4921875"
     showgrid="false"
     id="namedview10"
     inkscape:window-height="1002"
     inkscape:window-width="1920"
     inkscape:pageshadow="2"
     inkscape:pageopacity="0"
     guidetolerance="10"
     gridtolerance="10"
     objecttolerance="10"
     borderopacity="1"
     bordercolor="#666666"
     pagecolor="#ffffff" />
  <metadata
     id="metadata2">
Created by potrace 1.15, written by Peter Selinger 2001-2017
<rdf:RDF>
  <cc:Work
     rdf:about="">
    <dc:format>image/svg+xml</dc:format>
    <dc:type
       rdf:resource="http://purl.org/dc/dcmitype/StillImage" />
  </cc:Work>
</rdf:RDF>
</metadata>
  <g
     style="fill:#000000;fill-opacity:1"
     id="g6"
     stroke="none"
     fill="#000000"
     transform="matrix(0.1,0,0,-0.1,0,1280)">
    <path
       style="fill:#000000;fill-opacity:1"
       id="path4"
       d="m 6015,12789 c -740,-46 -1469,-219 -2145,-509 -284,-121 -817,-407 -985,-528 -22,-15 -108,-77 -191,-136 -179,-126 -366,-275 -521,-412 -163,-144 -375,-344 -398,-375 -11,-15 -63,-74 -115,-131 C 437,9356 -155,7545 36,5730 189,4271 832,2921 1871,1881 2536,1216 3300,725 4186,395 4592,244 5051,127 5490,65 5831,17 6000,6 6390,6 c 374,-1 519,8 810,45 85,11 182,23 215,25 33,3 121,19 195,35 707,160 1097,293 1625,554 386,191 672,366 1000,612 261,196 285,223 237,271 -17,17 -43,20 -233,25 -1742,51 -3386,839 -4545,2177 -1184,1368 -1717,3206 -1453,5010 218,1494 969,2854 2124,3849 116,100 115,98 115,132 0,52 -22,59 -186,58 -82,-1 -207,-6 -279,-10 z" />
  </g>
</svg>
