<?xml version="1.0" standalone="no"?>
<!DOCTYPE svg PUBLIC "-//W3C//DTD SVG 20010904//EN"
 "http://www.w3.org/TR/2001/REC-SVG-20010904/DTD/svg10.dtd">
<svg version="1.0" xmlns="http://www.w3.org/2000/svg"
 width="1280.000000pt" height="1145.000000pt" viewBox="0 0 1280.000000 1145.000000"
 preserveAspectRatio="xMidYMid meet">
<metadata>
Created by potrace 1.15, written by Peter Selinger 2001-2017
</metadata>
<g transform="translate(0.000000,1145.000000) scale(0.100000,-0.100000)"
fill="#000000" stroke="none">
<path d="M6755 11063 c-56 -242 -83 -347 -84 -325 -1 12 -4 22 -8 22 -15 0
-113 -113 -143 -165 -17 -30 -36 -55 -42 -55 -6 0 -9 -3 -6 -6 3 -3 23 2 43
11 21 8 40 14 42 12 2 -2 -99 -46 -224 -97 -126 -51 -232 -96 -236 -100 -4 -4
92 -66 213 -139 121 -73 220 -135 220 -137 0 -3 -14 3 -30 11 l-31 16 27 -52
c14 -29 42 -74 62 -101 l37 -49 6 53 c3 29 6 41 7 27 6 -89 44 -544 46 -546 1
-1 67 54 146 123 220 191 268 231 236 196 -33 -36 -35 -36 54 -21 91 14 173
41 158 51 -23 14 3 9 230 -45 122 -30 222 -53 222 -52 0 1 -40 98 -90 214 -86
202 -106 255 -76 202 12 -22 14 -20 29 42 10 40 17 105 17 164 l0 98 -21 -25
c-33 -40 -10 0 110 194 61 99 109 181 107 183 -1 2 -110 -6 -240 -18 -130 -11
-242 -18 -249 -15 -7 2 2 5 20 5 17 1 38 4 47 7 14 5 13 9 -7 24 -42 33 -142
78 -202 90 -33 6 -68 16 -79 22 -20 11 -16 -2 12 -34 8 -10 12 -18 9 -18 -3 0
-70 75 -148 168 -78 92 -145 171 -149 175 -4 4 -19 -45 -35 -110z m-88 -375
c-3 -8 -6 -5 -6 6 -1 11 2 17 5 13 3 -3 4 -12 1 -19z m560 -884 c-3 -3 -12 -4
-19 -1 -8 3 -5 6 6 6 11 1 17 -2 13 -5z"/>
<path d="M3020 8261 c-476 -159 -999 -432 -1360 -710 -790 -608 -1325 -1436
-1549 -2396 -78 -337 -105 -574 -105 -950 0 -282 6 -383 40 -610 102 -692 368
-1331 792 -1905 558 -755 1387 -1312 2302 -1549 882 -229 1763 -176 2615 156
183 71 649 303 795 395 245 155 471 326 635 481 l80 76 -91 -25 c-219 -58
-502 -104 -767 -125 -191 -14 -565 -7 -757 15 -1257 146 -2348 812 -3048 1862
-355 533 -575 1130 -668 1819 -21 153 -30 666 -15 837 88 983 497 1890 1155
2566 60 61 105 112 100 112 -5 0 -74 -22 -154 -49z"/>
<path d="M10161 7918 c-50 -217 -72 -293 -58 -207 l5 37 -46 -47 c-57 -56
-104 -115 -126 -159 -17 -33 -17 -34 3 -27 12 3 21 4 21 2 0 -3 -96 -44 -212
-92 -117 -48 -216 -91 -220 -94 -3 -3 101 -71 233 -150 131 -79 239 -146 239
-148 0 -3 -20 7 -44 21 -25 14 -47 26 -50 26 -7 0 61 -118 90 -157 13 -18 28
-42 34 -55 6 -16 8 -4 5 42 -4 58 -3 60 4 20 5 -25 17 -151 26 -280 10 -129
18 -236 19 -237 1 -1 78 64 172 145 166 146 170 148 219 151 52 2 100 12 175
34 l44 14 -29 11 -30 12 35 -6 c19 -3 129 -29 243 -56 115 -28 210 -48 212
-46 3 2 -38 105 -90 228 -95 223 -111 266 -76 201 l18 -35 18 60 c12 38 19 95
19 161 l1 103 -23 -28 -24 -27 23 40 c13 22 67 112 121 199 54 87 97 161 94
163 -2 3 -62 0 -133 -7 -196 -17 -302 -21 -273 -11 14 5 19 9 12 10 -7 1 -43
19 -79 41 -64 38 -126 61 -207 75 l-40 7 28 -39 c38 -53 11 -22 -158 175 -76
89 -139 162 -140 162 -1 0 -26 -105 -55 -232z m592 -215 c-7 -2 -19 -2 -25 0
-7 3 -2 5 12 5 14 0 19 -2 13 -5z m-263 -946 c0 -2 -12 -14 -27 -28 l-28 -24
24 28 c23 25 31 32 31 24z"/>
<path d="M5142 7978 c-34 -151 -92 -379 -86 -334 l6 40 -66 -68 c-37 -37 -75
-85 -86 -106 -11 -21 -27 -46 -37 -55 -16 -17 -16 -17 7 -10 94 29 13 -9 -224
-106 -182 -74 -188 -77 -165 -92 13 -8 116 -70 229 -137 113 -68 210 -127 215
-133 6 -6 -11 2 -37 16 l-46 27 36 -69 c21 -38 47 -80 58 -94 12 -13 26 -33
32 -43 10 -16 12 -13 13 21 2 42 22 -179 35 -372 4 -62 10 -113 13 -113 3 0
71 57 151 126 228 198 269 233 232 193 l-33 -35 64 7 c58 7 171 40 185 54 3 3
-5 5 -18 5 -13 0 -21 3 -17 6 6 6 83 -11 331 -72 77 -19 141 -32 143 -30 3 2
-32 91 -77 198 -45 106 -84 199 -87 206 -3 7 0 12 7 10 23 -6 42 74 44 190 l3
113 -24 -28 c-34 -39 -29 -31 101 180 64 104 116 192 116 196 0 4 -57 2 -127
-5 -176 -16 -337 -24 -288 -15 22 5 32 9 23 10 -10 0 -44 18 -77 40 -36 23
-93 47 -139 60 -106 29 -117 28 -89 -9 32 -42 -94 98 -185 207 -57 67 -105
122 -108 123 -3 0 -16 -46 -28 -102z m768 -943 c0 -5 -5 -3 -10 5 -5 8 -10 20
-10 25 0 6 5 3 10 -5 5 -8 10 -19 10 -25z"/>
<path d="M3566 5502 c-50 -220 -70 -294 -59 -213 l6 44 -62 -67 c-58 -63 -121
-150 -121 -169 0 -4 10 -6 23 -2 50 14 -17 -17 -209 -96 -109 -45 -203 -85
-207 -89 -5 -4 83 -63 195 -130 198 -120 242 -148 206 -135 -10 4 -18 4 -18 1
0 -15 55 -114 86 -155 l34 -44 1 39 c1 74 8 18 24 -206 8 -124 18 -240 21
-258 l5 -32 141 122 c226 197 297 256 255 212 l-37 -40 67 8 c38 4 95 16 128
26 59 19 59 20 26 27 -18 4 -30 9 -28 11 4 4 278 -59 435 -99 34 -9 52 -10 52
-4 0 6 -36 95 -80 198 -44 104 -85 201 -90 216 l-10 28 19 -24 19 -24 12 54
c8 30 15 104 16 164 l4 110 -21 -32 c-12 -18 -23 -33 -26 -33 -2 0 4 15 15 33
53 87 188 306 209 340 l24 39 -63 -6 c-389 -36 -497 -42 -374 -21 l38 6 -33
20 c-111 63 -171 86 -267 103 l-34 6 32 -43 c46 -60 5 -15 -153 171 -76 89
-142 162 -145 162 -4 0 -29 -98 -56 -218z m-166 -888 c0 -2 -9 0 -20 6 -11 6
-20 13 -20 16 0 2 9 0 20 -6 11 -6 20 -13 20 -16z"/>
<path d="M7315 4768 c-2 -7 -26 -110 -53 -228 -28 -118 -51 -202 -51 -185 l-1
30 -57 -60 c-57 -59 -123 -149 -123 -168 0 -5 12 -6 28 -3 45 10 10 -6 -216
-99 -168 -70 -210 -91 -200 -100 7 -7 109 -69 226 -139 116 -70 212 -130 212
-133 0 -3 -16 4 -36 16 -32 19 -63 30 -38 13 6 -4 23 -31 38 -60 15 -29 42
-73 61 -98 l35 -46 1 49 c2 72 7 32 29 -246 11 -140 21 -255 23 -257 1 -2 78
62 169 142 92 79 171 143 175 142 18 -4 122 14 192 35 l74 21 -39 12 c-86 26
-7 11 211 -41 127 -31 239 -58 249 -61 14 -5 17 -2 13 7 -72 163 -187 443
-184 446 2 2 10 -11 18 -29 l13 -32 18 70 c11 43 17 105 17 164 0 84 -2 93
-14 75 -73 -104 -47 -55 104 190 60 99 109 181 108 182 -1 1 -101 -7 -222 -18
-121 -11 -229 -18 -240 -16 -11 3 0 5 25 6 51 1 48 6 -33 55 -61 36 -129 60
-210 75 -46 8 -47 8 -31 -10 9 -11 14 -19 11 -19 -4 0 -70 74 -148 165 -77 91
-143 165 -145 165 -3 0 -6 -6 -9 -12z m326 -345 c13 -16 12 -17 -3 -4 -10 7
-18 15 -18 17 0 8 8 3 21 -13z m-41 -1026 c0 -2 -15 -16 -32 -33 l-33 -29 29
33 c28 30 36 37 36 29z"/>
<path d="M11402 4548 c-34 -151 -92 -379 -86 -333 l6 40 -64 -66 c-36 -36 -77
-88 -93 -115 -15 -27 -33 -53 -39 -57 -6 -5 2 -6 19 -3 55 11 39 4 -384 -170
l-33 -14 218 -131 c205 -122 282 -173 207 -135 l-32 16 12 -27 c34 -77 92
-163 110 -163 3 0 7 10 9 23 2 12 12 -94 23 -235 10 -142 22 -258 25 -258 4 0
81 64 171 143 161 140 165 143 214 145 28 2 86 12 129 24 71 19 77 22 61 35
-11 7 -16 13 -12 13 8 0 118 -26 321 -75 82 -19 151 -34 153 -31 2 2 -34 95
-81 206 -48 111 -86 204 -86 207 0 2 5 1 10 -2 24 -15 56 156 45 242 l-6 53
-20 -22 c-19 -22 192 333 213 360 6 7 8 15 5 18 -3 3 -101 -2 -217 -11 -116
-10 -214 -15 -217 -11 -4 3 9 7 28 7 22 1 27 3 14 6 -11 3 -38 17 -60 32 -67
44 -146 75 -228 87 -41 7 -42 6 -27 -13 37 -48 -89 93 -178 199 -53 64 -99
117 -102 117 -3 1 -16 -45 -28 -101z m349 -265 c13 -16 12 -17 -3 -4 -10 7
-18 15 -18 17 0 8 8 3 21 -13z m212 -80 c-7 -2 -19 -2 -25 0 -7 3 -2 5 12 5
14 0 19 -2 13 -5z m205 -598 c-3 -3 -9 2 -12 12 -6 14 -5 15 5 6 7 -7 10 -15
7 -18z m-468 -348 c0 -2 -12 -14 -27 -28 l-28 -24 24 28 c23 25 31 32 31 24z"/>
</g>
</svg>
