<!-- This Source Code Form is subject to the terms of the Mozilla Public
   - License, v. 2.0. If a copy of the MPL was not distributed with this
   - file, You can obtain one at http://mozilla.org/MPL/2.0/. -->
<svg xmlns="http://www.w3.org/2000/svg" width="24" height="24" viewBox="0 0 24 24"><path d="M8.23 18.748v-1.016l1.182-.146c.065-.013.12-.055.166-.127s.052-.143.02-.215L8.513 14.07H4.236l-1.104 3.096c-.039.104-.02.199.059.283s.153.13.225.137l1.123.146v1.016H.232v-1.016l1.123-.166L5.837 5.008h2.275l4.443 12.197c.052.124.103.21.151.259s.145.089.288.122l.762.146v1.016H8.23zM6.296 8.084l-1.68 4.805h3.398L6.296 8.084zM20.05 18.748l-.264-.996a8.55 8.55 0 0 1-1.083.625 8.54 8.54 0 0 1-1.112.425c-.409.127-.835.19-1.277.19-.364 0-.704-.06-1.02-.181s-.592-.293-.829-.518-.424-.497-.561-.815-.204-.677-.204-1.074c0-.299.024-.576.073-.83s.146-.49.293-.708.356-.426.63-.625.637-.392 1.089-.581 1.008-.377 1.665-.566 1.445-.384 2.363-.586v-.244c0-.098.003-.186.01-.264 0-.091.003-.182.01-.273.007-.189-.013-.392-.059-.61s-.137-.42-.273-.605-.329-.338-.576-.459-.569-.181-.967-.181c-.137 0-.259.003-.366.01s-.197.016-.269.029a5.337 5.337 0 0 0-.225.039v1.895h-2.061a1.09 1.09 0 0 1-.449-.049c-.11-.039-.213-.107-.308-.205s-.142-.25-.142-.459c0-.371.132-.703.396-.996.263-.293.607-.542 1.033-.747s.904-.363 1.435-.474a7.704 7.704 0 0 1 1.585-.166c.572 0 1.096.042 1.57.127s.883.249 1.224.493c.342.244.604.587.79 1.03s.278 1.025.278 1.748v5.137c0 .124.042.229.127.317s.188.138.312.151l.879.059v.938H20.05zm-.257-5.156c-.645.13-1.177.264-1.597.4s-.754.293-1.001.469-.42.376-.518.601-.146.487-.146.786c0 .208.034.402.103.581s.166.335.293.469.278.239.454.317.368.117.576.117c.215 0 .432-.023.649-.068s.415-.094.591-.146c.208-.065.407-.14.596-.225v-3.301z"></path></svg>