<?xml version="1.0" encoding="UTF-8" standalone="no"?>
<svg
   xmlns:dc="http://purl.org/dc/elements/1.1/"
   xmlns:cc="http://creativecommons.org/ns#"
   xmlns:rdf="http://www.w3.org/1999/02/22-rdf-syntax-ns#"
   xmlns:svg="http://www.w3.org/2000/svg"
   xmlns="http://www.w3.org/2000/svg"
   xmlns:sodipodi="http://sodipodi.sourceforge.net/DTD/sodipodi-0.dtd"
   xmlns:inkscape="http://www.inkscape.org/namespaces/inkscape"
   width="60.096107mm"
   height="60.096111mm"
   viewBox="0 0 60.096107 60.096111"
   version="1.1"
   id="svg8"
   inkscape:version="1.0.2-2 (e86c870879, 2021-01-15)"
   sodipodi:docname="gestures_swipe_up.svg">
  <defs
     id="defs2" />
  <sodipodi:namedview
     id="base"
     pagecolor="#ffffff"
     bordercolor="#666666"
     borderopacity="1.0"
     inkscape:pageopacity="0.0"
     inkscape:pageshadow="2"
     inkscape:zoom="1.979899"
     inkscape:cx="162.63817"
     inkscape:cy="58.683156"
     inkscape:document-units="mm"
     inkscape:current-layer="layer1"
     inkscape:document-rotation="0"
     showgrid="false"
     inkscape:window-width="1920"
     inkscape:window-height="1002"
     inkscape:window-x="-8"
     inkscape:window-y="-8"
     inkscape:window-maximized="1" />
  <metadata
     id="metadata5">
    <rdf:RDF>
      <cc:Work
         rdf:about="">
        <dc:format>image/svg+xml</dc:format>
        <dc:type
           rdf:resource="http://purl.org/dc/dcmitype/StillImage" />
        <dc:title></dc:title>
      </cc:Work>
    </rdf:RDF>
  </metadata>
  <g
     inkscape:label="Layer 1"
     inkscape:groupmode="layer"
     id="layer1"
     transform="translate(-68.442017,-28.351593)">
    <g
       id="g840"
       transform="rotate(180,98.490069,50.590702)">
      <path
         fill="context-fill"
         d="m 86.755602,61.359243 9.99997,9.999995 a 2.4999973,2.4999973 0 0 0 0.817314,0.542456 2.4599974,2.4599974 0 0 0 0.615118,0.125008 2.3449974,2.3449974 0 0 0 0.334488,0.06709 2.3449974,2.3449974 0 0 0 0.335436,-0.06709 2.4599974,2.4599974 0 0 0 0.615118,-0.125008 2.4999973,2.4999973 0 0 0 0.822044,-0.55748 l 10.00006,-9.999985 a 2.4999973,2.4999973 0 0 0 -3.54,-3.520003 l -5.7325,5.732498 V 44.594243 a 2.500016,2.500016 0 0 0 -5.000028,0 v 18.962481 l -5.7325,-5.732498 a 2.4999973,2.4999973 0 0 0 -3.53499,3.534997 z"
         id="path2"
         style="fill:#000000;fill-opacity:1;stroke:none;stroke-width:2;stroke-miterlimit:4;stroke-dasharray:none;stroke-opacity:1" />
      <path
         fill="context-fill"
         d="m 83.490052,13.46973 30.016158,2.3e-5 c 1.2446,0.0072 2.48386,0.840473 2.48386,2.499967 v 7.5 c -1e-5,4.142126 -3.35786,7.499979 -7.49999,7.49998 H 88.490072 c -4.14213,5e-6 -7.499993,-3.35785 -7.5,-7.49998 v -7.5 c 4e-6,-1.380701 1.119279,-2.49998 2.49998,-2.49999 z"
         id="path4"
         style="fill:#000000;fill-opacity:1;stroke:none;stroke-width:2;stroke-miterlimit:4;stroke-dasharray:none;stroke-opacity:1"
         sodipodi:nodetypes="ccscscccc" />
      <circle
         style="fill:#000000;fill-opacity:1;stroke-width:0.0505733;stroke-linecap:round;stroke-linejoin:round;stroke-miterlimit:10"
         id="path835"
         cx="98.490074"
         cy="39.120827"
         r="6" />
    </g>
  </g>
</svg>
