<?xml version="1.0" encoding="UTF-8" standalone="no"?>
<svg
   xmlns:dc="http://purl.org/dc/elements/1.1/"
   xmlns:cc="http://creativecommons.org/ns#"
   xmlns:rdf="http://www.w3.org/1999/02/22-rdf-syntax-ns#"
   xmlns:svg="http://www.w3.org/2000/svg"
   xmlns="http://www.w3.org/2000/svg"
   xmlns:sodipodi="http://sodipodi.sourceforge.net/DTD/sodipodi-0.dtd"
   xmlns:inkscape="http://www.inkscape.org/namespaces/inkscape"
   height="26.981028"
   width="30"
   xml:space="preserve"
   viewBox="0 0 29.999999 26.981027"
   y="0px"
   x="0px"
   sodipodi:docname="icon_without_background.svg"
   inkscape:version="1.0.2-2 (e86c870879, 2021-01-15)"
   inkscape:export-ydpi="3276.8"
   inkscape:export-xdpi="3276.8"
   inkscape:export-filename="Z:\Documents\GitHub\Sav22999\common-voice-android\images\icon.png"
   id="svg6"
   version="1.1"><metadata
   id="metadata24"><rdf:RDF><cc:Work
       rdf:about=""><dc:format>image/svg+xml</dc:format><dc:type
         rdf:resource="http://purl.org/dc/dcmitype/StillImage" /><dc:title /></cc:Work></rdf:RDF></metadata><defs
   id="defs22" />
<style
   id="style2"
   type="text/css">
	.st0{fill:url(#rect2475-2_1_);}
	.st1{fill-rule:evenodd;clip-rule:evenodd;fill:#FF9099;}
	.st2{fill-rule:evenodd;clip-rule:evenodd;fill:#FFFFFF;}
	.st3{fill-rule:evenodd;clip-rule:evenodd;fill:#EEEEEE;stroke:#DDDDDD;stroke-width:0.2979;stroke-miterlimit:10;}
	.st4{fill-rule:evenodd;clip-rule:evenodd;fill:url(#path10_1_);}
</style>
<sodipodi:namedview
   showgrid="false"
   pagecolor="#ffffff"
   objecttolerance="10"
   inkscape:zoom="11.125147"
   inkscape:window-y="-8"
   inkscape:window-x="-8"
   inkscape:window-width="1920"
   inkscape:window-maximized="1"
   inkscape:window-height="1002"
   inkscape:pageshadow="2"
   inkscape:pageopacity="0"
   inkscape:document-rotation="0"
   inkscape:cy="12.919049"
   inkscape:cx="-12.528771"
   inkscape:current-layer="svg6"
   id="namedview8"
   guidetolerance="10"
   gridtolerance="10"
   borderopacity="1"
   bordercolor="#666666">
	</sodipodi:namedview>
<linearGradient
   gradientTransform="matrix(1,0,0,-1,0,32)"
   y2="1.9444"
   x2="14.9841"
   y1="31.831699"
   x1="15.0157"
   gradientUnits="userSpaceOnUse"
   id="rect2475-2_1_">
	<stop
   id="stop5"
   style="stop-color:#646464"
   offset="0" />
	<stop
   id="stop7"
   style="stop-color:#222222"
   offset="1" />
</linearGradient>

<g
   sodipodi:insensitive="true"
   inkscape:label="Face"
   inkscape:export-ydpi="6861.6401"
   inkscape:export-xdpi="6861.6401"
   transform="matrix(0.47923323,0,0,0.47923672,-0.33546326,-0.52716039)"
   id="cv-icon"
   inkscape:export-filename="D:\Downloads\icon_without_background.png">
	<path
   d="M 50.2,17 49.5,5.7 49.7,5.5 C 50.2,5 50.4,4.3 50.4,3.3 50.4,2 49.3,1.1 47.9,1.1 c -1.3,0 -2.4,1.1 -2.4,2.2 0,1 0.2,1.7 0.8,2.2 L 46.5,5.7 46,17 Z M 8.9,23.9 c -4.5,0 -8.2,3.7 -8.2,8.4 v 6.8 c 0,4.6 3.7,8.4 8.2,8.4 h 46.2 c 4.5,0 8.2,-3.7 8.2,-8.4 v -6.8 c 0,-4.6 -3.7,-8.4 -8.2,-8.4 z"
   class="st1"
   inkscape:label="ears and antenna"
   inkscape:connector-curvature="0"
   id="Shape" />
	<path
   d="M 46.2,14.8 H 17.8 C 10.3,14.8 4.2,21 4.2,28.6 v 11.3 c 0,8.1 5.8,15 13.7,16.3 9.3,1.6 18.9,1.6 28.2,0 C 54,54.9 59.8,48 59.8,39.9 V 28.5 c 0,-7.6 -6.1,-13.7 -13.6,-13.7 z"
   class="st2"
   inkscape:label="external face"
   inkscape:connector-curvature="0"
   id="path7" />
	<path
   d="M 42.7,19.4 H 21.3 c -5.8,0 -10,3.7 -10,9.1 v 11.9 c 0,5.9 4.3,10.8 10.1,11.5 7,0.8 14.1,0.8 21.2,0 5.7,-0.7 10.1,-5.6 10.1,-11.5 V 28.5 c 0,-5.4 -4.3,-9.1 -10,-9.1 z"
   class="st3"
   inkscape:label="internal face"
   inkscape:connector-curvature="0"
   id="Rectangle-Copy-4"
   style="stroke-width:0.895235;stroke-miterlimit:10;stroke-dasharray:none" />
	
		<linearGradient
   gradientTransform="matrix(0.2234,0,0,-0.2234,-631.7687,-616.0897)"
   y2="-2915.8384"
   x2="2938.8345"
   y1="-2915.8384"
   x1="2912.6064"
   gradientUnits="userSpaceOnUse"
   id="path10_1_">
		<stop
   id="stop14"
   style="stop-color:#646464"
   offset="0" />
		<stop
   id="stop16"
   style="stop-color:#222222"
   offset="1" />
	</linearGradient>
	<path
   style="fill:url(#path10_1_)"
   d="M 23.7,39.4 H 40 c 0,0 -0.8,5.4 -8,5.4 -6.8,0 -8.3,-5.4 -8.3,-5.4 z m 0.6,-13.3 c -0.3,0.3 -0.5,0.7 -0.5,1.1 0,0.8 0.6,1.4 1.4,1.4 0.5,0 1,-0.3 1.2,-0.7 0.3,0.6 0.5,1.3 0.5,2.1 0,2.2 -1.8,4.1 -4,4.1 -2.2,0 -4,-1.8 -4,-4.1 0,-2.3 1.8,-4.1 4,-4.1 0.5,0 0.9,0.1 1.4,0.2 z m 18.1,0 c -0.2,0.3 -0.4,0.6 -0.4,1 0,0.8 0.6,1.5 1.4,1.5 0.5,0 0.9,-0.2 1.2,-0.6 0.3,0.6 0.5,1.3 0.5,2.1 0,2.2 -1.8,4.1 -4,4.1 -2.2,0 -4,-1.8 -4,-4.1 0,-2.3 1.8,-4.1 4,-4.1 0.5,-0.1 0.9,0 1.3,0.1 z"
   class="st4"
   inkscape:label="eyes and mouth"
   inkscape:connector-curvature="0"
   id="path10" />
</g>
</svg>
