<?xml version="1.0" encoding="UTF-8" standalone="no"?>
<!DOCTYPE svg PUBLIC "-//W3C//DTD SVG 1.1//EN" "http://www.w3.org/Graphics/SVG/1.1/DTD/svg11.dtd">
<svg width="100%" height="100%" viewBox="0 0 30 27" version="1.1" xmlns="http://www.w3.org/2000/svg" xmlns:xlink="http://www.w3.org/1999/xlink" xml:space="preserve" xmlns:serif="http://www.serif.com/" style="fill-rule:evenodd;clip-rule:evenodd;stroke-linejoin:round;stroke-miterlimit:2;">
    <g id="Face">
        <path id="ears-and-antenna" serif:id="ears and antenna" d="M21.756,6.566L8.195,6.566C5.17,6.566 2.62,8.671 1.888,11.509C0.759,12.21 0,13.478 0,14.952L0,18.211C0,19.861 0.993,21.296 2.397,21.914C3.459,24.238 5.607,25.972 8.243,26.406C12.7,27.173 17.3,27.173 21.757,26.406C24.39,25.973 26.536,24.242 27.599,21.922C29.005,21.317 30,19.898 30,18.211L30,14.952C30,13.517 29.248,12.244 28.129,11.531C27.571,9.279 25.863,7.496 23.674,6.839L23.387,2.204L23.482,2.109C23.722,1.869 23.818,1.534 23.818,1.054C23.818,0.431 23.291,0 22.62,0C21.997,0 21.47,0.527 21.47,1.054C21.47,1.534 21.565,1.869 21.853,2.109L21.949,2.204L21.756,6.566ZM11.022,18.355L18.834,18.355C18.834,18.355 18.45,20.943 15,20.943C11.741,20.943 11.022,18.355 11.022,18.355ZM19.984,11.981C19.888,12.125 19.792,12.268 19.792,12.46C19.792,12.844 20.08,13.179 20.463,13.179C20.703,13.179 20.895,13.083 21.038,12.891C21.182,13.179 21.278,13.514 21.278,13.898C21.278,14.952 20.415,15.863 19.361,15.863C18.307,15.863 17.444,15 17.444,13.898C17.444,12.796 18.307,11.933 19.361,11.933C19.601,11.885 19.792,11.933 19.984,11.981ZM11.31,11.981C11.166,12.125 11.07,12.316 11.07,12.508C11.07,12.891 11.358,13.179 11.741,13.179C11.981,13.179 12.22,13.035 12.316,12.844C12.46,13.131 12.556,13.467 12.556,13.85C12.556,14.904 11.693,15.815 10.639,15.815C9.585,15.815 8.722,14.952 8.722,13.85C8.722,12.748 9.585,11.885 10.639,11.885C10.879,11.885 11.07,11.933 11.31,11.981Z"/>
    </g>
</svg>
