<!-- This Source Code Form is subject to the terms of the Mozilla Public
   - License, v. 2.0. If a copy of the MPL was not distributed with this
   - file, You can obtain one at http://mozilla.org/MPL/2.0/. -->
<svg width="24" height="24" viewBox="0 0 24 24" fill="none" xmlns="http://www.w3.org/2000/svg"><path fill-rule="evenodd" clip-rule="evenodd" d="M9.894 3.553a1 1 0 1 0-1.788.894L8.382 5H3a1 1 0 0 0 0 2h6.98a.96.96 0 0 0 .042 0h1.645c-.715 2.136-1.8 3.94-2.953 5.41a7.546 7.546 0 0 1-1.778-2.76 1 1 0 0 0-1.872.702 9.527 9.527 0 0 0 2.339 3.574 21.309 21.309 0 0 1-2.866 2.517 15.843 15.843 0 0 1-.975.655l-.037.022-.011.007-.01.006h-.001a1 1 0 0 0 .993 1.736L4 18c.496.868.497.868.498.867H4.5l.006-.005.02-.011.07-.042a17.886 17.886 0 0 0 1.117-.75 23.305 23.305 0 0 0 3.281-2.907c.393.24.747.417 1.03.543a6.994 6.994 0 0 0 .677.26l.015.004.005.001.002.001h.002a1 1 0 0 0 .554-1.921l-.003-.001-.012-.004a4.943 4.943 0 0 1-.429-.168 6.65 6.65 0 0 1-.519-.259c1.37-1.753 2.664-3.955 3.448-6.608H16a1 1 0 1 0 0-2h-5.382l-.724-1.447zM18.626 16L17 11.598 15.374 16h3.252zm.739 2l.89 2.412a.9.9 0 0 0 1.69-.624l-3.632-9.83c-.45-1.22-2.176-1.22-2.626 0l-3.631 9.83a.9.9 0 1 0 1.688.624L14.635 18h4.73z" fill="rgba(12, 12, 13, .8)" fill-opacity=".8"></path></svg>