<?xml version="1.0" encoding="UTF-8" standalone="no"?>
<svg
   xmlns:dc="http://purl.org/dc/elements/1.1/"
   xmlns:cc="http://creativecommons.org/ns#"
   xmlns:rdf="http://www.w3.org/1999/02/22-rdf-syntax-ns#"
   xmlns:svg="http://www.w3.org/2000/svg"
   xmlns="http://www.w3.org/2000/svg"
   xmlns:sodipodi="http://sodipodi.sourceforge.net/DTD/sodipodi-0.dtd"
   xmlns:inkscape="http://www.inkscape.org/namespaces/inkscape"
   inkscape:version="1.0 (4035a4fb49, 2020-05-01)"
   sodipodi:docname="login.svg"
   id="svg4"
   version="1.1"
   viewBox="0 0 24 24"
   height="24"
   width="24">
  <metadata
     id="metadata10">
    <rdf:RDF>
      <cc:Work
         rdf:about="">
        <dc:format>image/svg+xml</dc:format>
        <dc:type
           rdf:resource="http://purl.org/dc/dcmitype/StillImage" />
        <dc:title></dc:title>
      </cc:Work>
    </rdf:RDF>
  </metadata>
  <defs
     id="defs8" />
  <sodipodi:namedview
     inkscape:current-layer="svg4"
     inkscape:window-maximized="1"
     inkscape:window-y="-8"
     inkscape:window-x="-8"
     inkscape:cy="14.257921"
     inkscape:cx="9.8087386"
     inkscape:zoom="18.679404"
     showgrid="false"
     id="namedview6"
     inkscape:window-height="801"
     inkscape:window-width="1536"
     inkscape:pageshadow="2"
     inkscape:pageopacity="0"
     guidetolerance="10"
     gridtolerance="10"
     objecttolerance="10"
     borderopacity="1"
     bordercolor="#666666"
     pagecolor="#ffffff" />
  <path
     style="fill:#000000;fill-opacity:1;stroke:none;stroke-opacity:1"
     id="path2"
     d="m 3.567,22 h 13 a -2,2 0 0 0 2,-2 v -2 l -2,2 h -12 a -1,1 0 0 1 -1,-1 V 5 a -1,1 0 0 1 1,-1 h 12 l 2,2 V 4 a -2,2 0 0 0 -2,-2 h -13 a -2,2 0 0 0 -2,2 v 16 a -2,2 0 0 0 2,2 z m 6,-9 h 7.6 l -4.2,4.154 1.414,1.477 L 21,12.017 14.546,5.411 13.067,6.95 17.143,11 H 9.567 Z" />
</svg>
