<!-- This Source Code Form is subject to the terms of the Mozilla Public
   - License, v. 2.0. If a copy of the MPL was not distributed with this
   - file, You can obtain one at http://mozilla.org/MPL/2.0/. -->
<svg width="24" height="24" viewBox="0 0 24 24" xmlns="http://www.w3.org/2000/svg"><path d="M17 11v-1c0-.552.448-1 1-1s1 .5 1 1v1c0 3.5-2.6 6.4-6 6.9V21c0 .6-.5 1-1 1s-1-.5-1-1v-3c-3.4-.5-6-3.4-6-7v-1c0-.6.5-1 1-1s1 .5 1 1v1c0 2.8 2.2 5 5 5s5-2.2 5-5zm-5-9c1.7 0 3 1.3 3 3v6c0 1.7-1.3 3-3 3s-3-1.343-3-3V5a3 3 0 0 1 3-3z" fill="rgba(12, 12, 13, .8)" fill-opacity=".8"></path></svg>