<?xml version="1.0" encoding="UTF-8" standalone="no"?>
<svg
   xmlns:dc="http://purl.org/dc/elements/1.1/"
   xmlns:cc="http://creativecommons.org/ns#"
   xmlns:rdf="http://www.w3.org/1999/02/22-rdf-syntax-ns#"
   xmlns:svg="http://www.w3.org/2000/svg"
   xmlns="http://www.w3.org/2000/svg"
   xmlns:sodipodi="http://sodipodi.sourceforge.net/DTD/sodipodi-0.dtd"
   xmlns:inkscape="http://www.inkscape.org/namespaces/inkscape"
   inkscape:version="1.0 (4035a4fb49, 2020-05-01)"
   sodipodi:docname="news.svg"
   id="svg4"
   version="1.1"
   viewBox="0 0 16 16"
   height="16"
   width="16">
  <metadata
     id="metadata10">
    <rdf:RDF>
      <cc:Work
         rdf:about="">
        <dc:format>image/svg+xml</dc:format>
        <dc:type
           rdf:resource="http://purl.org/dc/dcmitype/StillImage" />
      </cc:Work>
    </rdf:RDF>
  </metadata>
  <defs
     id="defs8" />
  <sodipodi:namedview
     inkscape:current-layer="svg4"
     inkscape:window-maximized="1"
     inkscape:window-y="-8"
     inkscape:window-x="-8"
     inkscape:cy="8"
     inkscape:cx="8"
     inkscape:zoom="52.5"
     showgrid="false"
     id="namedview6"
     inkscape:window-height="1002"
     inkscape:window-width="1920"
     inkscape:pageshadow="2"
     inkscape:pageopacity="0"
     guidetolerance="10"
     gridtolerance="10"
     objecttolerance="10"
     borderopacity="1"
     bordercolor="#666666"
     pagecolor="#ffffff" />
  <path
     style="fill:#000000;fill-opacity:1"
     id="path2"
     fill="rgba(12, 12, 13, .8)"
     d="M9.5 3s.428 2.43 1.249 3.251S14 7.5 14 7.5s-2.43.394-3.251 1.215S9.5 12 9.5 12s-.394-2.464-1.215-3.285S5 7.5 5 7.5s2.464-.428 3.285-1.249S9.5 3 9.5 3m0-2h-.014a2 2 0 0 0-1.96 1.68 7.536 7.536 0 0 1-.659 2.154 7.9 7.9 0 0 1-2.212.7 2 2 0 0 0 .029 3.945 7.733 7.733 0 0 1 2.183.658 7.74 7.74 0 0 1 .658 2.185A2 2 0 0 0 9.489 14H9.5a2 2 0 0 0 1.971-1.657 7.891 7.891 0 0 1 .7-2.209 7.566 7.566 0 0 1 2.154-.659 2 2 0 0 0 .027-3.944 7.694 7.694 0 0 1-2.181-.7 7.731 7.731 0 0 1-.7-2.181A2 2 0 0 0 9.5 1zM3 15.5a.5.5 0 0 1-.49-.421 3.047 3.047 0 0 0-.4-1.186 3.047 3.047 0 0 0-1.186-.4.5.5 0 0 1-.007-.986 3.147 3.147 0 0 0 1.192-.417 3.051 3.051 0 0 0 .4-1.171A.5.5 0 0 1 3 10.5a.5.5 0 0 1 .492.413 3.094 3.094 0 0 0 .417 1.179 3.142 3.142 0 0 0 1.178.416.5.5 0 0 1-.007.985 3.007 3.007 0 0 0-1.172.4 3.166 3.166 0 0 0-.416 1.192A.5.5 0 0 1 3 15.5zm-.5-11a.5.5 0 0 1-.49-.42 2.344 2.344 0 0 0-.265-.82 2.344 2.344 0 0 0-.82-.265.5.5 0 0 1-.007-.986 2.41 2.41 0 0 0 .827-.277A2.306 2.306 0 0 0 2.007.92.5.5 0 0 1 2.5.5a.5.5 0 0 1 .492.412 2.353 2.353 0 0 0 .278.818 2.372 2.372 0 0 0 .816.276.5.5 0 0 1-.007.985 2.306 2.306 0 0 0-.811.266 2.41 2.41 0 0 0-.277.827.5.5 0 0 1-.491.416z" />
</svg>
