<?xml version="1.0" encoding="utf-8"?>
<!-- Generator: Adobe Illustrator 24.3.0, SVG Export Plug-In . SVG Version: 6.00 Build 0)  -->
<svg version="1.1" id="Livello_1" xmlns="http://www.w3.org/2000/svg" xmlns:xlink="http://www.w3.org/1999/xlink" x="0px" y="0px"
	 viewBox="0 0 16 16" style="enable-background:new 0 0 16 16;" xml:space="preserve">
<style type="text/css">
	.st0{fill:none;stroke:#000000;stroke-width:2.5;stroke-linecap:round;stroke-linejoin:round;}
</style>
<path d="M13.9,8.8c0-0.1,0-0.1,0-0.2V8.6c-0.3-1.4-1.2-2.6-2.4-3.4c-0.3-0.2-0.5-0.6-0.6-0.9V2c0-0.6-0.4-1-1-1H6C5.5,1,5,1.4,5,2
	v2.2c0,0.4-0.2,0.8-0.6,1c-1.2,0.8-2,2-2.3,3.3v0.1c0,0,0,0.1,0,0.1C2.1,9.1,2,9.5,2,9.8C2,12,3.3,14,5.3,14.9C5.4,15,5.5,15,5.7,15
	h4.6c0.2,0,0.3,0,0.4-0.1C12.7,14,14,12,14,9.8C14,9.5,13.9,9.1,13.9,8.8z M5.6,6.8C6.5,6.2,7,5.3,7,4.2V3h1.9v1.2
	c0,1,0.6,2,1.4,2.6c0.8,0.5,1.3,1.3,1.5,2.2v0.2c-1.2,0.8-2.8,0.5-3.7-0.6C7.2,7.8,5.8,7.5,4.5,8C4.8,7.5,5.2,7.2,5.6,6.8L5.6,6.8z"
	/>
<path id="path845" class="st0" d="M14,13L2,3"/>
</svg>
