<?xml version="1.0" encoding="UTF-8" standalone="no"?>
<!DOCTYPE svg PUBLIC "-//W3C//DTD SVG 1.1//EN" "http://www.w3.org/Graphics/SVG/1.1/DTD/svg11.dtd">
<svg width="100%" height="100%" viewBox="0 0 1280 1280" version="1.1" xmlns="http://www.w3.org/2000/svg" xmlns:xlink="http://www.w3.org/1999/xlink" xml:space="preserve" xmlns:serif="http://www.serif.com/" style="fill-rule:evenodd;clip-rule:evenodd;">
    <g transform="matrix(0.1,0,0,-0.1,0,1280)">
        <g id="g841">
            <g id="g12">
                <path id="path4" d="M5930,10719C5699,10709 5551,10694 5270,10654C5164,10638 4670,10542 4550,10514C4424,10484 3922,10322 3635,10220C3122,10037 2534,9732 2020,9382C1536,9053 975,8571 892,8414C808,8253 812,8049 902,7877C940,7804 1063,7676 1134,7635C1306,7535 1490,7528 1665,7614C1741,7652 1784,7687 1971,7859C2422,8274 3033,8682 3588,8939C3979,9121 4644,9346 5030,9429C5444,9517 5984,9570 6470,9570C6990,9570 7331,9526 7985,9375C8418,9275 8872,9112 9297,8903C9922,8596 10435,8242 10953,7762C11074,7650 11155,7602 11268,7575C11404,7542 11567,7571 11691,7651C11819,7734 11919,7868 11955,8006C11964,8040 11970,8107 11970,8171C11970,8298 11949,8377 11896,8454C11837,8539 11482,8861 11205,9081C10440,9687 9499,10165 8545,10434C8104,10558 7810,10618 7415,10665C7344,10673 7231,10687 7165,10695C6875,10729 6380,10739 5930,10719Z" style="fill:white;fill-rule:nonzero;stroke:white;stroke-width:1px;"/>
                <path id="path6" d="M6095,8609C5876,8598 5739,8582 5525,8543C5024,8452 4765,8385 4432,8261C3699,7986 2999,7546 2489,7040C2339,6891 2311,6848 2283,6717C2252,6569 2283,6417 2371,6285C2465,6144 2583,6059 2738,6019C2833,5995 2897,5995 2994,6020C3100,6047 3157,6080 3268,6180C3643,6518 3850,6673 4165,6855C4822,7235 5650,7460 6390,7460C6646,7460 7032,7419 7305,7364C8106,7201 8856,6812 9491,6230C9640,6093 9703,6052 9807,6025C9929,5993 10091,6013 10203,6072C10283,6115 10406,6233 10453,6311C10572,6513 10559,6765 10420,6945C10376,7002 10097,7257 9950,7374C9103,8053 8072,8472 6965,8590C6703,8617 6392,8624 6095,8609Z" style="fill:white;fill-rule:nonzero;stroke:white;stroke-width:1px;"/>
                <path id="path8" d="M6145,6494C6043,6485 5801,6449 5685,6424C5174,6315 4691,6099 4291,5800C4140,5687 3909,5480 3843,5398C3677,5192 3671,4952 3825,4720C4003,4452 4339,4372 4595,4535C4623,4552 4699,4616 4765,4676C4914,4811 4988,4870 5109,4949C5414,5149 5733,5267 6101,5315C6254,5335 6595,5335 6742,5314C7134,5260 7517,5096 7865,4835C7904,4806 7995,4728 8068,4661C8255,4490 8338,4454 8520,4462C8675,4469 8794,4522 8906,4635C9091,4819 9140,5075 9034,5300C9004,5364 8981,5392 8877,5495C8405,5959 7793,6284 7125,6424C6869,6477 6731,6492 6455,6495C6312,6496 6173,6496 6145,6494Z" style="fill:white;fill-rule:nonzero;stroke:white;stroke-width:1px;"/>
                <path id="path10" d="M6255,4530C5840,4471 5486,4214 5294,3833C5149,3546 5129,3191 5241,2887C5398,2462 5788,2141 6224,2081C6323,2067 6497,2067 6597,2081C7045,2143 7464,2518 7595,2975C7651,3170 7651,3440 7595,3635C7448,4143 6970,4516 6445,4534C6374,4537 6288,4535 6255,4530Z" style="fill:white;fill-rule:nonzero;stroke:white;stroke-width:1px;"/>
                <g id="path845" transform="matrix(10,0,0,-10,0,12800)">
                    <path d="M175.238,178.286L1036.19,894.476" style="fill:none;fill-rule:nonzero;stroke:white;stroke-width:112.5px;stroke-linecap:round;stroke-linejoin:round;"/>
                </g>
            </g>
        </g>
    </g>
</svg>
