<svg xmlns="http://www.w3.org/2000/svg" xmlns:xlink="http://www.w3.org/1999/xlink" viewBox="0 0 50 50"><path d="M39.847656 1.992188C38.363281 1.992188 37.453125 3.351563 36.191406 5.234375C33.820313 8.777344 29.878906 14.617188 18.988281 14.964844L18.988281 30.023438C25.101563 30.1875 28.964844 32.136719 31.640625 34.53125C30.605469 36.105469 30 37.984375 30 40C30 45.511719 34.488281 50 40 50C45.511719 50 50 45.511719 50 40C50 35.5 47.003906 31.683594 42.90625 30.433594C42.960938 28.289063 42.996094 25.875 42.996094 22.996094C42.996094 1.992188 41.023438 1.992188 39.847656 1.992188 Z M 6.992188 15C4.238281 15 2 17.238281 2 19.996094L2 24.996094C2 27.75 4.238281 29.988281 6.992188 29.988281L17 29.988281L17 15 Z M 44.96875 19.28125C44.984375 20.460938 44.996094 21.691406 44.996094 22.996094C44.996094 24.683594 44.984375 26.257813 44.964844 27.730469C46.714844 27.128906 47.949219 25.527344 47.949219 23.578125C47.949219 21.597656 46.703125 19.921875 44.96875 19.28125 Z M 6.632813 31.96875C7.761719 35.050781 8.828125 40.621094 9.601563 44.671875C9.757813 45.492188 10.238281 47.996094 13.441406 47.996094L16.777344 47.996094C19.433594 47.996094 19.996094 46.363281 19.996094 44.996094C19.996094 43.214844 18.996094 42.074219 17.832031 40.921875C17.5625 40.492188 17.128906 38.113281 17.019531 31.988281L6.992188 31.988281C6.871094 31.988281 6.75 31.976563 6.632813 31.96875 Z M 40 32C44.429688 32 48 35.570313 48 40C48 44.429688 44.429688 48 40 48C35.570313 48 32 44.429688 32 40C32 35.570313 35.570313 32 40 32 Z M 36.5 35.5C36.25 35.5 36 35.601563 35.800781 35.800781C35.402344 36.199219 35.402344 36.800781 35.800781 37.199219L38.597656 40L35.800781 42.800781C35.402344 43.199219 35.402344 43.800781 35.800781 44.199219C36 44.398438 36.300781 44.5 36.5 44.5C36.699219 44.5 37 44.398438 37.199219 44.199219L40 41.402344L42.800781 44.199219C43 44.398438 43.300781 44.5 43.5 44.5C43.699219 44.5 44 44.398438 44.199219 44.199219C44.597656 43.800781 44.597656 43.199219 44.199219 42.800781L41.402344 40L44.199219 37.199219C44.597656 36.800781 44.597656 36.199219 44.199219 35.800781C43.800781 35.402344 43.199219 35.402344 42.800781 35.800781L40 38.597656L37.199219 35.800781C37 35.601563 36.75 35.5 36.5 35.5Z"/></svg>