<?xml version="1.0" encoding="UTF-8" standalone="no"?>
<!DOCTYPE svg PUBLIC "-//W3C//DTD SVG 1.1//EN" "http://www.w3.org/Graphics/SVG/1.1/DTD/svg11.dtd">
<svg width="100%" height="100%" viewBox="0 0 24 24" version="1.1" xmlns="http://www.w3.org/2000/svg" xmlns:xlink="http://www.w3.org/1999/xlink" xml:space="preserve" xmlns:serif="http://www.serif.com/" style="fill-rule:evenodd;clip-rule:evenodd;stroke-linejoin:round;stroke-miterlimit:2;">
    <g>
        <path d="M3,3L3,21L5,21L5,14L12.4,14L13.4,16L21,16L21,5L14.6,5L13.6,3L3,3ZM12,10.3C12.6,10.3 12.9,10.6 12.9,11.2C12.9,11.8 12.6,12 12,12C11.4,12 11.1,11.7 11.1,11.1C11.1,10.5 11.4,10.3 12,10.3ZM11.6,9.6L11,6.1L11,5.9C11,5.4 11.3,5.1 12,5.1C12.7,5.1 13,5.3 13,5.8L13,6.1L12.4,9.6L11.6,9.6Z" style="fill:white;fill-rule:nonzero;"/>
    </g>
</svg>
