<?xml version="1.0" encoding="UTF-8" standalone="no"?><!DOCTYPE svg PUBLIC "-//W3C//DTD SVG 1.1//EN" "http://www.w3.org/Graphics/SVG/1.1/DTD/svg11.dtd"><svg width="100%" height="100%" viewBox="0 0 292 292" version="1.1" xmlns="http://www.w3.org/2000/svg" xmlns:xlink="http://www.w3.org/1999/xlink" xml:space="preserve" xmlns:serif="http://www.serif.com/" style="fill-rule:evenodd;clip-rule:evenodd;stroke-linejoin:round;stroke-miterlimit:2;"><g id="Layer_3"><path id="circle2" d="M144.167,0c79.566,0 144.166,64.6 144.166,144.167c0,79.566 -64.6,144.166 -144.166,144.166c-79.567,0 -144.167,-64.6 -144.167,-144.166c0,-79.567 64.6,-144.167 144.167,-144.167Zm-84.167,142.917c0,-0 72.083,-29.584 97.083,-40c9.584,-4.167 42.084,-17.5 42.084,-17.5c-0,-0 15,-5.834 13.75,8.333c-0.417,5.833 -3.75,26.25 -7.084,48.333c-5,31.25 -10.416,65.417 -10.416,65.417c-0,0 -0.834,9.583 -7.917,11.25c-7.083,1.667 -18.75,-5.833 -20.833,-7.5c-1.667,-1.25 -31.25,-20 -42.084,-29.167c-2.916,-2.5 -6.25,-7.5 0.417,-13.333c15,-13.75 32.917,-30.833 43.75,-41.667c5,-5 10,-16.666 -10.833,-2.5c-29.584,20.417 -58.75,39.584 -58.75,39.584c-0,-0 -6.667,4.166 -19.167,0.416c-12.5,-3.75 -27.083,-8.75 -27.083,-8.75c-0,0 -10,-6.25 7.083,-12.916Z" style="fill:#4ea4f6;"/></g></svg>