<svg xmlns="http://www.w3.org/2000/svg" xmlns:xlink="http://www.w3.org/1999/xlink" viewBox="0 0 30 30"><path d="M14.984375 0.98632812 A 1.0001 1.0001 0 0 0 14 2L14 5 A 1.0001 1.0001 0 1 0 16 5L16 2 A 1.0001 1.0001 0 0 0 14.984375 0.98632812 z M 5.796875 4.7988281 A 1.0001 1.0001 0 0 0 5.1015625 6.515625L7.2226562 8.6367188 A 1.0001 1.0001 0 1 0 8.6367188 7.2226562L6.515625 5.1015625 A 1.0001 1.0001 0 0 0 5.796875 4.7988281 z M 24.171875 4.7988281 A 1.0001 1.0001 0 0 0 23.484375 5.1015625L21.363281 7.2226562 A 1.0001 1.0001 0 1 0 22.777344 8.6367188L24.898438 6.515625 A 1.0001 1.0001 0 0 0 24.171875 4.7988281 z M 15 8C11.134 8 8 11.134 8 15C8 18.866 11.134 22 15 22C18.866 22 22 18.866 22 15C22 11.134 18.866 8 15 8 z M 2 14 A 1.0001 1.0001 0 1 0 2 16L5 16 A 1.0001 1.0001 0 1 0 5 14L2 14 z M 25 14 A 1.0001 1.0001 0 1 0 25 16L28 16 A 1.0001 1.0001 0 1 0 28 14L25 14 z M 7.9101562 21.060547 A 1.0001 1.0001 0 0 0 7.2226562 21.363281L5.1015625 23.484375 A 1.0001 1.0001 0 1 0 6.515625 24.898438L8.6367188 22.777344 A 1.0001 1.0001 0 0 0 7.9101562 21.060547 z M 22.060547 21.060547 A 1.0001 1.0001 0 0 0 21.363281 22.777344L23.484375 24.898438 A 1.0001 1.0001 0 1 0 24.898438 23.484375L22.777344 21.363281 A 1.0001 1.0001 0 0 0 22.060547 21.060547 z M 14.984375 23.986328 A 1.0001 1.0001 0 0 0 14 25L14 28 A 1.0001 1.0001 0 1 0 16 28L16 25 A 1.0001 1.0001 0 0 0 14.984375 23.986328 z"/></svg>