<?xml version="1.0" encoding="UTF-8" standalone="no"?>
<svg
   xmlns:dc="http://purl.org/dc/elements/1.1/"
   xmlns:cc="http://creativecommons.org/ns#"
   xmlns:rdf="http://www.w3.org/1999/02/22-rdf-syntax-ns#"
   xmlns:svg="http://www.w3.org/2000/svg"
   xmlns="http://www.w3.org/2000/svg"
   xmlns:sodipodi="http://sodipodi.sourceforge.net/DTD/sodipodi-0.dtd"
   xmlns:inkscape="http://www.inkscape.org/namespaces/inkscape"
   width="30"
   height="30"
   viewBox="0 0 28 28"
   version="1.1"
   id="svg14"
   sodipodi:docname="no_thumb.svg"
   inkscape:version="0.92.4 (5da689c313, 2019-01-14)">
  <defs
     id="defs9" />
  <metadata
     id="metadata18">
    <rdf:RDF>
      <cc:Work
         rdf:about="">
        <dc:format>image/svg+xml</dc:format>
        <dc:type
           rdf:resource="http://purl.org/dc/dcmitype/StillImage" />
      </cc:Work>
    </rdf:RDF>
  </metadata>
  <sodipodi:namedview
     pagecolor="#ffffff"
     bordercolor="#666666"
     borderopacity="1"
     objecttolerance="10"
     gridtolerance="10"
     guidetolerance="10"
     inkscape:pageopacity="0"
     inkscape:pageshadow="2"
     inkscape:window-width="1536"
     inkscape:window-height="801"
     id="namedview16"
     showgrid="false"
     inkscape:zoom="7.8666667"
     inkscape:cx="1.0169492"
     inkscape:cy="15"
     inkscape:window-x="-8"
     inkscape:window-y="-8"
     inkscape:window-maximized="1"
     inkscape:current-layer="svg14" />
  <circle
     style="opacity:1;fill:#ffffff;fill-opacity:1;stroke:none;stroke-width:21;stroke-linecap:butt;stroke-linejoin:miter;stroke-miterlimit:4;stroke-dasharray:none;stroke-dashoffset:0;stroke-opacity:1;paint-order:normal"
     id="path814"
     cx="14"
     cy="14"
     r="14" />
  <g
     transform="matrix(0.42424527,0,0,0.42424527,9.3333297,9.3332707)"
     id="g12"
     style="fill:#ff505f;fill-opacity:1">
    <path
       id="thumbs-down-path"
       d="M 22,2.913 C 21.797,1.205 20.38,0 18.658,0 H 4.48 C 2.96,0 1.745,1.105 1.442,2.511 l -1.418,9.042 c -0.203,1.607 0.911,3.214 2.532,3.415 h 5.266 v 3.014 c 0,2.21 1.823,4.018 4.05,4.018 0.406,0 0.81,-0.2 0.912,-0.603 l 3.747,-8.438 h 2.026 c 1.721,0 3.14,-1.206 3.342,-2.913 V 3.014 C 22,3.014 22,2.914 22,2.914 Z m -7.09,8.94 -3.645,8.138 C 10.455,19.689 9.847,18.986 9.847,18.082 v -4.018 c 0,-0.603 -0.405,-1.005 -1.012,-1.005 H 3.062 2.859 C 2.353,12.959 1.948,12.457 2.049,11.954 L 3.467,2.914 C 3.568,2.411 3.973,2.009 4.48,2.009 h 10.43 v 9.845 z m 5.065,-1.908 c -0.102,0.603 -0.71,1.105 -1.317,1.105 H 16.936 V 2.01 h 1.722 c 0.608,0 1.215,0.501 1.317,1.104 z"
       style="fill:#ff505f;fill-opacity:1"
       inkscape:connector-curvature="0" />
  </g>
</svg>
