<?xml version="1.0" encoding="UTF-8" standalone="no"?>
<svg
   xmlns:dc="http://purl.org/dc/elements/1.1/"
   xmlns:cc="http://creativecommons.org/ns#"
   xmlns:rdf="http://www.w3.org/1999/02/22-rdf-syntax-ns#"
   xmlns:svg="http://www.w3.org/2000/svg"
   xmlns="http://www.w3.org/2000/svg"
   xmlns:sodipodi="http://sodipodi.sourceforge.net/DTD/sodipodi-0.dtd"
   xmlns:inkscape="http://www.inkscape.org/namespaces/inkscape"
   inkscape:version="1.0 (4035a4fb49, 2020-05-01)"
   sodipodi:docname="speak_again.svg"
   id="svg6"
   version="1.1"
   viewBox="0 0 40 40"
   height="30"
   width="30">
  <metadata
     id="metadata12">
    <rdf:RDF>
      <cc:Work
         rdf:about="">
        <dc:format>image/svg+xml</dc:format>
        <dc:type
           rdf:resource="http://purl.org/dc/dcmitype/StillImage" />
      </cc:Work>
    </rdf:RDF>
  </metadata>
  <defs
     id="defs10" />
  <sodipodi:namedview
     inkscape:document-rotation="0"
     inkscape:current-layer="svg6"
     inkscape:window-maximized="1"
     inkscape:window-y="-8"
     inkscape:window-x="-8"
     inkscape:cy="12.433836"
     inkscape:cx="7.8596803"
     inkscape:zoom="15.733333"
     showgrid="false"
     id="namedview8"
     inkscape:window-height="801"
     inkscape:window-width="1536"
     inkscape:pageshadow="2"
     inkscape:pageopacity="0"
     guidetolerance="10"
     gridtolerance="10"
     objecttolerance="10"
     borderopacity="1"
     bordercolor="#666666"
     pagecolor="#ffffff" />
  <circle
     r="20"
     cy="20"
     cx="20"
     id="path814"
     style="opacity:1;fill:#ffffff;fill-opacity:1;stroke:none;stroke-width:30;stroke-linecap:butt;stroke-linejoin:miter;stroke-miterlimit:4;stroke-dasharray:none;stroke-dashoffset:0;stroke-opacity:1;paint-order:normal" />
  <g
     style="fill:#ff505f;fill-opacity:1;fill-rule:evenodd;stroke:none;stroke-width:0;stroke-opacity:1"
     transform="translate(10.666667,6)"
     id="g4">
    <g
       transform="matrix(0.71427296,0,0,0.71427296,2.6666663,4.0003571)"
       style="fill:#ff505f;fill-opacity:1;stroke:none;stroke-opacity:1"
       id="icon-/-play">
      <path
         style="fill:#ff505f;fill-opacity:1;stroke:none;stroke-opacity:1"
         inkscape:connector-curvature="0"
         d="M 9.333,18.667 A 4.68,4.68 0 0 0 14,14 V 4.667 A 4.68,4.68 0 0 0 9.333,0 4.68,4.68 0 0 0 4.667,4.667 V 14 a 4.68,4.68 0 0 0 4.666,4.667 z M 7,4.667 A 2.34,2.34 0 0 1 9.333,2.333 2.34,2.34 0 0 1 11.667,4.667 V 14 A 2.34,2.34 0 0 1 9.333,16.333 2.34,2.34 0 0 1 7,14 Z m 11.667,7 V 14 c 0,4.783 -3.617,8.633 -8.167,9.217 v 2.45 H 14 c 0.7,0 1.167,0.466 1.167,1.166 C 15.167,27.533 14.7,28 14,28 H 4.667 C 3.967,28 3.5,27.533 3.5,26.833 c 0,-0.7 0.467,-1.166 1.167,-1.166 h 3.5 v -2.45 C 3.617,22.633 0,18.667 0,14 v -2.333 c 0,-0.7 0.467,-1.167 1.167,-1.167 0.7,0 1.166,0.467 1.166,1.167 V 14 c 0,3.85 3.15,7 7,7 3.85,0 7,-3.15 7,-7 v -2.333 c 0,-0.7 0.467,-1.167 1.167,-1.167 0.7,0 1.167,0.467 1.167,1.167 z"
         id="speak-button" />
    </g>
  </g>
</svg>
