<?xml version="1.0" encoding="UTF-8" standalone="no"?>
<svg
   xmlns:dc="http://purl.org/dc/elements/1.1/"
   xmlns:cc="http://creativecommons.org/ns#"
   xmlns:rdf="http://www.w3.org/1999/02/22-rdf-syntax-ns#"
   xmlns:svg="http://www.w3.org/2000/svg"
   xmlns="http://www.w3.org/2000/svg"
   xmlns:sodipodi="http://sodipodi.sourceforge.net/DTD/sodipodi-0.dtd"
   xmlns:inkscape="http://www.inkscape.org/namespaces/inkscape"
   width="30"
   height="30"
   viewBox="0 0 28 28"
   version="1.1"
   id="svg14"
   sodipodi:docname="yes_thumb2.svg"
   inkscape:version="1.0.2-2 (e86c870879, 2021-01-15)">
  <defs
     id="defs9" />
  <metadata
     id="metadata18">
    <rdf:RDF>
      <cc:Work
         rdf:about="">
        <dc:format>image/svg+xml</dc:format>
        <dc:type
           rdf:resource="http://purl.org/dc/dcmitype/StillImage" />
        <dc:title></dc:title>
      </cc:Work>
    </rdf:RDF>
  </metadata>
  <sodipodi:namedview
     pagecolor="#ffffff"
     bordercolor="#666666"
     borderopacity="1"
     objecttolerance="10"
     gridtolerance="10"
     guidetolerance="10"
     inkscape:pageopacity="0"
     inkscape:pageshadow="2"
     inkscape:window-width="1920"
     inkscape:window-height="1002"
     id="namedview16"
     showgrid="false"
     inkscape:zoom="31.466667"
     inkscape:cx="18.084454"
     inkscape:cy="15.755173"
     inkscape:window-x="-8"
     inkscape:window-y="-8"
     inkscape:window-maximized="1"
     inkscape:current-layer="g12"
     inkscape:document-rotation="0" />
  <circle
     style="opacity:1;fill:#ffffff;fill-opacity:1;stroke:none;stroke-width:21;stroke-linecap:butt;stroke-linejoin:miter;stroke-miterlimit:4;stroke-dasharray:none;stroke-dashoffset:0;stroke-opacity:1;paint-order:normal"
     id="path814-1"
     cx="14"
     cy="14"
     r="14" />
  <ellipse
     style="opacity:1;fill:#ffffff;fill-opacity:1;stroke:none;stroke-width:21;stroke-linecap:butt;stroke-linejoin:miter;stroke-miterlimit:4;stroke-dasharray:none;stroke-dashoffset:0;stroke-opacity:1;paint-order:normal"
     id="path814"
     cx="14"
     cy="14"
     r="14" />
  <g
     transform="matrix(0.42424579,0,0,0.42424579,9.3333333,9.3332593)"
     id="g12"
     style="fill:#5accb8;fill-opacity:1">
    <path
       id="thumbs-up-path"
       d="M 21.367,8.2 C 20.861,7.6 20.152,7.1 19.342,7 H 14.177 V 4 c 0,-2.2 -1.823,-4 -4.05,-4 C 9.722,0 9.317,0.2 9.215,0.6 L 5.468,9 H 3.038 C 1.316,9 0,10.3 0,12 v 7 c 0,1.7 1.316,3 3.038,3 h 14.481 c 1.519,0 2.734,-1.1 3.038,-2.5 l 1.418,-9 c 0.1,-0.8 -0.102,-1.6 -0.608,-2.3 z"
       inkscape:connector-curvature="0"
       sodipodi:nodetypes="cccssccsssssccc" />
  </g>
</svg>
