<?xml version="1.0" encoding="utf-8"?>
<!-- Generator: Adobe Illustrator 24.3.0, SVG Export Plug-In . SVG Version: 6.00 Build 0)  -->
<svg version="1.1"
	 id="svg6" inkscape:export-filename="C:\Users\saver\Documents\GitHub\Sav22999\common-voice-android\Images\icon512.png" inkscape:export-xdpi="1638.4" inkscape:export-ydpi="1638.4" inkscape:version="0.92.4 (5da689c313, 2019-01-14)" sodipodi:docname="icon.svg" xmlns:cc="http://creativecommons.org/ns#" xmlns:dc="http://purl.org/dc/elements/1.1/" xmlns:inkscape="http://www.inkscape.org/namespaces/inkscape" xmlns:rdf="http://www.w3.org/1999/02/22-rdf-syntax-ns#" xmlns:sodipodi="http://sodipodi.sourceforge.net/DTD/sodipodi-0.dtd" xmlns:svg="http://www.w3.org/2000/svg"
	 xmlns="http://www.w3.org/2000/svg" xmlns:xlink="http://www.w3.org/1999/xlink" x="0px" y="0px" viewBox="0 0 30 30"
	 style="enable-background:new 0 0 30 30;" xml:space="preserve">
<style type="text/css">
	.st0{fill:url(#rect2475-2_1_);}
	.st1{fill-rule:evenodd;clip-rule:evenodd;fill:#FFFFFF;stroke:#000000;stroke-width:0.4167;stroke-miterlimit:1.25;}
	.st2{fill-rule:evenodd;clip-rule:evenodd;}
	.st3{fill:#FFFFFF;}
	.st4{fill:#E5E5E5;}
	.st5{fill:#CCCCCC;}
	.st6{fill:#EE7778;}
	.st7{fill:#D66B6C;}
	.st8{fill:#444B54;}
</style>
<sodipodi:namedview  bordercolor="#666666" borderopacity="1" gridtolerance="10" guidetolerance="10" id="namedview8" inkscape:current-layer="svg6" inkscape:cx="18.517402" inkscape:cy="14.605599" inkscape:pageopacity="0" inkscape:pageshadow="2" inkscape:window-height="801" inkscape:window-maximized="1" inkscape:window-width="1536" inkscape:window-x="-8" inkscape:window-y="-8" inkscape:zoom="11.125147" objecttolerance="10" pagecolor="#ffffff" showgrid="false">
	</sodipodi:namedview>
<path id="rect2475" d="M3,0h24c1.7,0,3,1.3,3,3v24c0,1.7-1.3,3-3,3H3c-1.7,0-3-1.3-3-3V3C0,1.3,1.3,0,3,0z"/>
<linearGradient id="rect2475-2_1_" gradientUnits="userSpaceOnUse" x1="0" y1="17" x2="42" y2="17" gradientTransform="matrix(1 0 0 -1 0 32)">
	<stop  offset="0" style="stop-color:#646464"/>
	<stop  offset="1" style="stop-color:#646464;stop-opacity:0"/>
</linearGradient>
<path id="rect2475-2" class="st0" d="M3,0h24c1.7,0,3,1.3,3,3v24c0,1.7-1.3,3-3,3H3c-1.7,0-3-1.3-3-3V3C0,1.3,1.3,0,3,0z"/>
<g id="cv-icon" transform="matrix(0.3125,0,0,0.31250228,5,5.873162)" inkscape:export-xdpi="1638.4" inkscape:export-ydpi="1638.4">
	<g id="img_x2F_-ava_x2F_-4" transform="translate(0,-3)">
		<g id="Group" transform="translate(0,2.666667)">
			<path id="Shape" inkscape:connector-curvature="0" class="st1" d="M50.2,17.4L49.5,6l0.2-0.2c0.5-0.5,0.7-1.2,0.7-2.2
				c0-1.3-1.1-2.2-2.5-2.2c-1.3,0-2.4,1.1-2.4,2.2c0,1,0.2,1.7,0.8,2.2L46.5,6L46,17.4H50.2z M8.9,24.3c-4.5,0-8.2,3.7-8.2,8.4v6.8
				c0,4.6,3.7,8.4,8.2,8.4h46.2c4.5,0,8.2-3.7,8.2-8.4v-6.8c0-4.6-3.7-8.4-8.2-8.4H8.9z"/>
			<path id="path7" inkscape:connector-curvature="0" class="st1" d="M46.2,15.1H17.8c-7.5,0-13.6,6.2-13.6,13.8v11.3
				c0,8.1,5.8,15,13.7,16.3c9.3,1.6,18.9,1.6,28.2,0c7.9-1.3,13.7-8.2,13.7-16.3V28.9C59.8,21.3,53.7,15.1,46.2,15.1z"/>
			<path id="Rectangle-Copy-4" inkscape:connector-curvature="0" class="st1" d="M42.7,19.8H21.3c-5.8,0-10,3.7-10,9.1v11.9
				c0,5.9,4.3,10.8,10.1,11.5c7,0.8,14.1,0.8,21.2,0c5.7-0.7,10.1-5.6,10.1-11.5V28.9C52.7,23.5,48.4,19.8,42.7,19.8z"/>
			<path id="path10" inkscape:connector-curvature="0" inkscape:label="path10" class="st2" d="M23.7,39.7H40c0,0-0.8,5.4-8,5.4
				C25.2,45.1,23.7,39.7,23.7,39.7z M24.3,26.5c-0.3,0.3-0.5,0.7-0.5,1.1c0,0.8,0.6,1.4,1.4,1.4c0.5,0,1-0.3,1.2-0.7
				c0.3,0.6,0.5,1.3,0.5,2.1c0,2.2-1.8,4.1-4,4.1s-4-1.8-4-4.1c0-2.2,1.8-4.1,4-4.1C23.4,26.2,23.8,26.3,24.3,26.5z M42.4,26.4
				c-0.2,0.3-0.4,0.6-0.4,1c0,0.8,0.6,1.5,1.4,1.5c0.5,0,0.9-0.2,1.2-0.6c0.3,0.6,0.5,1.3,0.5,2.1c0,2.2-1.8,4.1-4,4.1s-4-1.8-4-4.1
				c0-2.2,1.8-4.1,4-4.1C41.6,26.2,42,26.3,42.4,26.4z"/>
		</g>
	</g>
</g>
<g>
	<path class="st3" d="M20.1,11H9.9c-0.3,0-0.6-0.3-0.6-0.6V9.3c0-0.3,0.3-0.6,0.6-0.6h10.2c0.3,0,0.6,0.3,0.6,0.6v1.1
		C20.7,10.7,20.4,11,20.1,11"/>
	<path class="st4" d="M20.1,8.7h-1.8V11h1.8c0.3,0,0.6-0.3,0.6-0.6V9.3C20.7,9,20.4,8.7,20.1,8.7"/>
	<path class="st3" d="M18.2,0.4c0.8,0,1.4,0.6,1.4,1.4s-0.6,1.4-1.4,1.4s-1.4-0.6-1.4-1.4S17.4,0.4,18.2,0.4"/>
	<path class="st5" d="M18.6,0.4c0.2,0.2,0.3,0.5,0.3,0.9c0,0.8-0.6,1.4-1.4,1.4c-0.1,0-0.3,0-0.4-0.1C17.3,2.8,17.6,3,17.9,3
		c0,0,0,0,0,0s0,0,0,0c0.1,0,0.2,0,0.3,0l0,0c0,0,0,0,0,0c0,0,0,0,0,0c0,0,0,0,0,0c0,0,0,0,0,0c0,0,0,0,0,0c0,0,0,0,0,0c0,0,0,0,0,0
		l0,0c0,0,0,0,0,0c0,0,0,0,0,0c0,0,0,0,0,0c0,0,0,0,0,0c0,0,0,0,0,0c0,0,0,0,0,0c0,0,0,0,0,0c0,0,0,0,0,0c0,0,0,0,0,0c0,0,0,0,0,0
		c0,0,0,0,0,0c0,0,0,0,0,0c0,0,0,0,0,0l0,0c0.8,0,1.4-0.6,1.4-1.4l0,0l0,0c0,0,0,0,0,0c0,0,0,0,0,0c0,0,0,0,0,0c0,0,0,0,0,0
		c0,0,0,0,0,0l0,0c0,0,0,0,0,0c0,0,0,0,0,0c0,0,0,0,0,0v0c0,0,0,0,0,0l0,0c0,0,0,0,0,0c0,0,0,0,0,0c0,0,0,0,0,0c0,0,0,0,0,0
		C19.5,1.1,19.1,0.6,18.6,0.4"/>
	<path class="st6" d="M19.9,7.7c0-1.7-1.3-3-3-3h-0.2c-0.7,0-1.2-0.5-1.2-1.2s0.5-1.2,1.2-1.2L16.8,1h-1.2c-2.9,0-5.3,2.4-5.3,5.3
		v1.4v1h9.6V7.7"/>
	<path class="st7" d="M16.9,4.7h-0.2c0.8,0.4,1.6,1.1,1.6,2.4c0,0.8,0,1.7,0,1.7c0.6,0,1.6,0,1.6,0V7.7C19.9,6,18.5,4.7,16.9,4.7"/>
	<path class="st8" d="M20.7,8.7c-0.2-0.2-0.4-0.3-0.6-0.3H9.9c-0.2,0-0.5,0.1-0.6,0.3C9.1,8.8,9,9,9,9.3v1.1c0,0.2,0.1,0.5,0.3,0.6
		c0.2,0.2,0.4,0.3,0.6,0.3h10.2c0.2,0,0.5-0.1,0.6-0.3c0.2-0.2,0.3-0.4,0.3-0.6V9.3C21,9,20.9,8.8,20.7,8.7z M20.3,10.4
		c0,0.1,0,0.1-0.1,0.2c0,0-0.1,0.1-0.2,0.1H9.9c-0.1,0-0.1,0-0.2-0.1c0,0-0.1-0.1-0.1-0.2V9.3c0-0.1,0-0.1,0.1-0.2
		c0,0,0.1-0.1,0.2-0.1h10.2c0.1,0,0.1,0,0.2,0.1c0,0,0.1,0.1,0.1,0.2V10.4z M10.6,7.4v-1c0-1.4,0.6-2.6,1.5-3.5
		c0.9-0.9,2.1-1.5,3.5-1.5h1.2c0.2,0,0.3-0.2,0.3-0.3S17,0.7,16.8,0.7h-1.2c-1.6,0-3,0.6-4,1.7c-1,1-1.7,2.4-1.7,4v1
		c0,0.2,0.2,0.3,0.3,0.3S10.6,7.6,10.6,7.4L10.6,7.4z"/>
	<path class="st3" d="M13.6,2.1c-0.8,0.4-1.5,1-1.9,1.7c-0.5,0.7-0.7,1.6-0.7,2.5c0,0.2,0.2,0.3,0.3,0.3c0.2,0,0.3-0.2,0.3-0.3
		c0-0.8,0.2-1.5,0.6-2.2c0.4-0.6,1-1.1,1.7-1.4c0.2-0.1,0.2-0.3,0.2-0.5C14,2.1,13.8,2.1,13.6,2.1L13.6,2.1z"/>
	<path class="st8" d="M19.4,0.5C19.1,0.2,18.6,0,18.2,0c-0.5,0-0.9,0.2-1.2,0.5c-0.3,0.3-0.5,0.7-0.5,1.2c0,0.5,0.2,0.9,0.5,1.2
		c0.3,0.3,0.7,0.5,1.2,0.5c0.5,0,0.9-0.2,1.2-0.5c0.3-0.3,0.5-0.7,0.5-1.2C19.9,1.2,19.7,0.8,19.4,0.5z M18.9,2.4
		c-0.2,0.2-0.4,0.3-0.7,0.3c-0.3,0-0.5-0.1-0.7-0.3c-0.2-0.2-0.3-0.4-0.3-0.7c0-0.3,0.1-0.5,0.3-0.7c0.2-0.2,0.4-0.3,0.7-0.3
		c0.3,0,0.5,0.1,0.7,0.3c0.2,0.2,0.3,0.4,0.3,0.7C19.2,2,19.1,2.2,18.9,2.4z"/>
	<path class="st8" d="M16.6,1.9c-0.4,0-0.8,0.2-1.1,0.4c-0.3,0.3-0.4,0.7-0.4,1.1c0,0.4,0.2,0.8,0.4,1.1C15.8,4.8,16.2,5,16.6,5h0.2
		c0.7,0,1.3,0.3,1.8,0.7c0.5,0.4,0.8,1,0.9,1.7c0,0.2,0.2,0.3,0.4,0.3c0.2,0,0.3-0.2,0.3-0.4c-0.1-0.8-0.5-1.6-1.1-2.1
		c-0.6-0.5-1.4-0.9-2.3-0.9h-0.2c-0.2,0-0.4-0.1-0.6-0.2c-0.2-0.2-0.2-0.4-0.2-0.6c0-0.2,0.1-0.4,0.2-0.6c0.2-0.2,0.4-0.2,0.6-0.2
		c0.2,0,0.3-0.2,0.3-0.3C17,2.1,16.8,1.9,16.6,1.9L16.6,1.9z"/>
</g>
</svg>
