<?xml version="1.0" encoding="UTF-8" standalone="no"?>
<!DOCTYPE svg PUBLIC "-//W3C//DTD SVG 1.1//EN" "http://www.w3.org/Graphics/SVG/1.1/DTD/svg11.dtd">
<svg width="100%" height="100%" viewBox="0 0 30 30" version="1.1" xmlns="http://www.w3.org/2000/svg" xmlns:xlink="http://www.w3.org/1999/xlink" xml:space="preserve" xmlns:serif="http://www.serif.com/" style="fill-rule:evenodd;clip-rule:evenodd;">
    <path id="background" d="M30,3C30,1.344 28.656,0 27,0L3,0C1.344,0 0,1.344 0,3L0,27C0,28.656 1.344,30 3,30L27,30C28.656,30 30,28.656 30,27L30,3Z" style="fill:url(#_Linear1);"/>
    <g id="Face" transform="matrix(0.3125,0,0,0.312502,5,5.87316)">
        <path id="ears-and-antenna" serif:id="ears and antenna" d="M50.164,17.039L49.507,5.695L49.746,5.481C50.25,5.028 50.469,4.329 50.469,3.275C50.469,2.015 49.387,1.061 48,1.061C46.71,1.061 45.553,2.146 45.553,3.275C45.553,4.269 45.796,4.989 46.308,5.459L46.537,5.669L46.042,17.039L50.164,17.039ZM8.889,23.945C4.35,23.945 0.667,27.682 0.667,32.298L0.667,39.053C0.667,43.668 4.35,47.406 8.889,47.406L55.111,47.406C59.65,47.406 63.333,43.668 63.333,39.053L63.333,32.298C63.333,27.682 59.65,23.945 55.111,23.945L8.889,23.945Z" style="fill:rgb(255,144,153);"/>
        <path id="external-face" serif:id="external face" d="M46.222,14.765L17.778,14.765C10.293,14.765 4.222,20.925 4.222,28.529L4.222,39.827C4.222,47.938 10.008,54.853 17.887,56.167C27.233,57.725 36.767,57.725 46.113,56.167C53.992,54.853 59.778,47.938 59.778,39.827L59.778,28.529C59.778,20.925 53.707,14.765 46.222,14.765Z" style="fill:white;"/>
        <path id="internal-face" serif:id="internal face" d="M42.667,19.442L21.333,19.442C15.559,19.442 11.333,23.145 11.333,28.529L11.333,40.442C11.333,46.309 15.672,51.238 21.409,51.897C28.447,52.705 35.553,52.705 42.591,51.897C48.328,51.238 52.667,46.309 52.667,40.442L52.667,28.529C52.667,23.145 48.441,19.442 42.667,19.442Z" style="fill:rgb(238,238,238);stroke:rgb(221,221,221);stroke-width:1.33px;"/>
        <path id="eyes-and-mouth" serif:id="eyes and mouth" d="M23.742,39.353L40.013,39.353C40.013,39.353 39.181,44.765 32,44.765C25.188,44.765 23.742,39.353 23.742,39.353ZM24.264,26.131C23.946,26.39 23.742,26.789 23.742,27.237C23.742,28.017 24.36,28.649 25.123,28.649C25.65,28.649 26.108,28.348 26.341,27.904C26.687,28.507 26.884,29.208 26.884,29.957C26.884,32.205 25.101,34.028 22.902,34.028C20.703,34.028 18.92,32.205 18.92,29.957C18.92,27.709 20.703,25.887 22.902,25.887C23.381,25.887 23.839,25.973 24.264,26.131ZM42.382,26.08C42.156,26.337 42.019,26.677 42.019,27.05C42.019,27.853 42.656,28.503 43.441,28.503C43.919,28.503 44.341,28.263 44.599,27.894C44.948,28.499 45.148,29.204 45.148,29.957C45.148,32.205 43.365,34.028 41.166,34.028C38.967,34.028 37.184,32.205 37.184,29.957C37.184,27.709 38.967,25.887 41.166,25.887C41.59,25.887 41.999,25.955 42.382,26.08Z" style="fill:url(#_Linear2);"/>
    </g>
    <g transform="matrix(1,0,0,1,2.25,9.12891)">
        <g transform="matrix(8,0,0,8,0,0)">
            <path d="M0.156,-0.066L0.156,0.199L0.068,0.199L0.068,-0.491C0.068,-0.546 0.076,-0.589 0.091,-0.62C0.105,-0.651 0.131,-0.677 0.167,-0.698C0.203,-0.718 0.243,-0.728 0.288,-0.728C0.353,-0.728 0.403,-0.709 0.436,-0.672C0.47,-0.634 0.487,-0.593 0.487,-0.548C0.487,-0.505 0.473,-0.47 0.446,-0.443C0.419,-0.416 0.388,-0.4 0.353,-0.394C0.409,-0.388 0.453,-0.368 0.484,-0.333C0.514,-0.297 0.53,-0.254 0.53,-0.203C0.53,-0.147 0.512,-0.098 0.475,-0.054C0.439,-0.01 0.387,0.012 0.318,0.012C0.248,0.012 0.194,-0.014 0.156,-0.066ZM0.233,-0.422C0.293,-0.422 0.337,-0.432 0.364,-0.453C0.392,-0.474 0.405,-0.504 0.405,-0.543C0.405,-0.575 0.394,-0.602 0.37,-0.624C0.347,-0.645 0.318,-0.656 0.283,-0.656C0.253,-0.656 0.227,-0.648 0.204,-0.632C0.182,-0.616 0.168,-0.598 0.163,-0.579C0.158,-0.559 0.156,-0.525 0.156,-0.476L0.156,-0.279C0.156,-0.223 0.16,-0.182 0.167,-0.156C0.175,-0.129 0.192,-0.106 0.218,-0.084C0.243,-0.063 0.273,-0.053 0.307,-0.053C0.347,-0.053 0.379,-0.067 0.403,-0.094C0.427,-0.122 0.438,-0.157 0.438,-0.198C0.438,-0.232 0.43,-0.262 0.412,-0.289C0.395,-0.316 0.373,-0.334 0.348,-0.344C0.322,-0.353 0.288,-0.358 0.246,-0.358L0.233,-0.358L0.233,-0.422Z" style="fill:rgb(255,144,153);fill-rule:nonzero;"/>
        </g>
    </g>
    <defs>
        <linearGradient id="_Linear1" x1="0" y1="0" x2="1" y2="0" gradientUnits="userSpaceOnUse" gradientTransform="matrix(-0.031593,29.8872,-29.8872,-0.031593,15.4155,0.168735)"><stop offset="0" style="stop-color:rgb(187,187,187);stop-opacity:1"/><stop offset="1" style="stop-color:white;stop-opacity:1"/></linearGradient>
        <linearGradient id="_Linear2" x1="0" y1="0" x2="1" y2="0" gradientUnits="userSpaceOnUse" gradientTransform="matrix(26.2281,0,0,26.2281,18.9199,35.3258)"><stop offset="0" style="stop-color:rgb(100,100,100);stop-opacity:1"/><stop offset="1" style="stop-color:rgb(34,34,34);stop-opacity:1"/></linearGradient>
    </defs>
</svg>
