<?xml version="1.0" encoding="UTF-8" standalone="no"?>
<!DOCTYPE svg PUBLIC "-//W3C//DTD SVG 1.1//EN" "http://www.w3.org/Graphics/SVG/1.1/DTD/svg11.dtd">
<svg width="100%" height="100%" viewBox="0 0 30 30" version="1.1" xmlns="http://www.w3.org/2000/svg" xmlns:xlink="http://www.w3.org/1999/xlink" xml:space="preserve" xmlns:serif="http://www.serif.com/" style="fill-rule:evenodd;clip-rule:evenodd;">
    <path id="background" d="M30,3C30,1.344 28.656,0 27,0L3,0C1.344,0 0,1.344 0,3L0,27C0,28.656 1.344,30 3,30L27,30C28.656,30 30,28.656 30,27L30,3Z" style="fill:url(#_Linear1);"/>
    <g transform="matrix(1.43009,0,0,1.43009,4.84026,6.16756)">
        <g transform="matrix(0.223404,0,0,0.223406,-0.848936,-0.75958)">
            <g id="g919">
                <g id="Face">
                    <path id="ears-and-antenna" serif:id="ears and antenna" d="M53.8,19.8L53.1,8.5L53.3,8.3C53.8,7.8 54,7.1 54,6.1C54,4.8 52.9,3.9 51.5,3.9C50.2,3.9 49.1,5 49.1,6.1C49.1,7.1 49.3,7.8 49.9,8.3L50.1,8.5L49.6,19.8L53.8,19.8ZM12.5,26.7C8,26.7 4.3,30.4 4.3,35.1L4.3,41.9C4.3,46.5 8,50.3 12.5,50.3L58.7,50.3C63.2,50.3 66.9,46.6 66.9,41.9L66.9,35.1C66.9,30.5 63.2,26.7 58.7,26.7L12.5,26.7Z" style="fill:rgb(255,144,153);"/>
                    <path id="external-face" serif:id="external face" d="M49.8,17.6L21.4,17.6C13.9,17.6 7.8,23.8 7.8,31.4L7.8,42.7C7.8,50.8 13.6,57.7 21.5,59C30.8,60.6 40.4,60.6 49.7,59C57.6,57.7 63.4,50.8 63.4,42.7L63.4,31.3C63.4,23.7 57.3,17.6 49.8,17.6Z" style="fill:white;"/>
                    <g id="g907">
                        <path id="internal-face" serif:id="internal face" d="M46.3,22.2L24.9,22.2C19.1,22.2 14.9,25.9 14.9,31.3L14.9,43.2C14.9,49.1 19.2,54 25,54.7C32,55.5 39.1,55.5 46.2,54.7C51.9,54 56.3,49.1 56.3,43.2L56.3,31.3C56.3,25.9 52,22.2 46.3,22.2Z" style="fill:rgb(238,238,238);"/>
                        <path id="path905" d="M35.5,55.4C32,55.4 28.4,55.2 24.9,54.8C19.1,54.1 14.7,49.1 14.7,43.2L14.7,31.3C14.7,25.9 18.9,22.1 24.8,22.1L46.2,22.1C52.1,22.1 56.4,26 56.4,31.3L56.4,43.2C56.4,49.1 52,54.1 46.2,54.8C42.7,55.2 39.1,55.4 35.5,55.4ZM24.9,22.3C19.1,22.3 15,26 15,31.3L15,43.2C15,49 19.3,53.9 25,54.5C32,55.3 39.1,55.3 46.2,54.5C51.9,53.8 56.2,48.9 56.2,43.2L56.2,31.3C56.2,26.1 52.1,22.3 46.3,22.3L24.9,22.3Z" style="fill:none;fill-rule:nonzero;stroke:rgb(221,221,221);stroke-width:0.9px;"/>
                    </g>
                    <path id="eyes-and-mouth" serif:id="eyes and mouth" d="M27.3,42.2L43.6,42.2C43.6,42.2 42.8,47.6 35.6,47.6C28.8,47.6 27.3,42.2 27.3,42.2ZM27.9,28.9C27.6,29.2 27.4,29.6 27.4,30C27.4,30.8 28,31.4 28.8,31.4C29.3,31.4 29.8,31.1 30,30.7C30.3,31.3 30.5,32 30.5,32.8C30.5,35 28.7,36.9 26.5,36.9C24.3,36.9 22.5,35.1 22.5,32.8C22.5,30.5 24.3,28.7 26.5,28.7C27,28.7 27.4,28.8 27.9,28.9ZM46,28.9C45.8,29.2 45.6,29.5 45.6,29.9C45.6,30.7 46.2,31.4 47,31.4C47.5,31.4 47.9,31.2 48.2,30.8C48.5,31.4 48.7,32.1 48.7,32.9C48.7,35.1 46.9,37 44.7,37C42.5,37 40.7,35.2 40.7,32.9C40.7,30.6 42.5,28.8 44.7,28.8C45.2,28.7 45.6,28.8 46,28.9Z"/>
                </g>
            </g>
        </g>
        <g id="path15" transform="matrix(0.171358,0,0,0.171358,0.875002,-14.5368)">
            <path d="M12.385,125.255C13.255,122.909 13.722,120.526 13.645,118.094C13.517,118.173 13.389,118.252 13.261,118.332C13.024,118.578 12.654,118.662 12.55,118.362C11.702,115.487 10.056,111.902 13.024,107.873C13.853,106.748 21.257,103.966 25.587,101.997C29.655,100.148 33.619,97.765 38.594,96.851C43.19,96.006 47.272,96.495 50.706,98.168C50.571,97.931 50.429,97.668 50.277,97.372C47.298,92.799 44.018,89.046 40.148,85.908C37.761,83.972 35.072,82.796 32.39,82.869C30.495,82.92 28.578,83.76 27.2,84.604L5.008,98.204C-0.651,101.202 -1.174,106.281 2.667,111.744C5.549,115.843 7.975,119.931 9.025,124.707C9.059,124.703 9.092,124.699 9.125,124.695L9.17,124.691C9.207,124.687 9.245,124.684 9.282,124.681L9.309,124.679C9.352,124.676 9.396,124.673 9.44,124.671L9.455,124.671C9.502,124.669 9.55,124.667 9.598,124.666L9.6,124.666C9.649,124.665 9.699,124.664 9.748,124.664L9.748,124.664C9.848,124.664 9.947,124.666 10.045,124.671L10.054,124.671C10.1,124.673 10.145,124.676 10.191,124.68L10.205,124.681C10.25,124.684 10.295,124.688 10.339,124.693L10.347,124.694C10.395,124.699 10.442,124.704 10.49,124.71L10.494,124.711C10.539,124.717 10.584,124.723 10.629,124.73L10.637,124.731L10.644,124.732C10.687,124.739 10.731,124.746 10.775,124.753L10.781,124.754L10.792,124.756C10.833,124.763 10.875,124.772 10.916,124.78L10.933,124.783C10.975,124.792 11.017,124.801 11.058,124.81L11.074,124.814C11.117,124.824 11.159,124.835 11.201,124.845L11.213,124.848C11.256,124.859 11.297,124.871 11.339,124.882L11.346,124.884L11.353,124.886C11.392,124.897 11.431,124.909 11.47,124.921L11.497,124.929C11.535,124.941 11.572,124.953 11.61,124.965L11.632,124.972C11.67,124.986 11.709,124.999 11.747,125.013L11.764,125.019C11.801,125.033 11.838,125.046 11.874,125.061L11.902,125.072C11.938,125.086 11.974,125.101 12.01,125.116L12.03,125.124C12.067,125.14 12.104,125.156 12.141,125.173L12.16,125.181C12.197,125.198 12.234,125.215 12.27,125.232L12.286,125.24L12.293,125.243L12.385,125.253L12.385,125.255Z" style="fill:rgb(200,0,0);"/>
        </g>
        <g id="path17" transform="matrix(0.171358,0,0,0.171358,0.875002,-14.5368)">
            <path d="M58.55,111.178C58.58,111.497 58.156,111.393 57.967,111.348C42.175,107.549 26.461,110.025 13.261,118.332C13.024,118.577 12.654,118.661 12.55,118.361C11.702,115.486 10.056,111.901 13.024,107.872C13.853,106.747 21.257,103.966 25.587,101.997C29.655,100.147 33.619,97.765 38.594,96.85C45.217,95.633 50.773,97.185 54.86,101.058C57.332,103.399 58.55,107.914 58.55,111.178L58.55,111.178Z" style="fill:rgb(247,247,247);"/>
        </g>
        <g id="circle19" transform="matrix(0.171358,0,0,0.171358,0.875002,-14.5368)">
            <circle cx="9.748" cy="130.499" r="5.837" style="fill:rgb(247,247,247);"/>
        </g>
    </g>
    <defs>
        <linearGradient id="_Linear1" x1="0" y1="0" x2="1" y2="0" gradientUnits="userSpaceOnUse" gradientTransform="matrix(-0.031593,29.8872,-29.8872,-0.031593,15.4155,0.168735)"><stop offset="0" style="stop-color:rgb(100,100,100);stop-opacity:1"/><stop offset="1" style="stop-color:rgb(34,34,34);stop-opacity:1"/></linearGradient>
    </defs>
</svg>
