<?xml version="1.0" encoding="UTF-8" standalone="no"?>
<!DOCTYPE svg PUBLIC "-//W3C//DTD SVG 1.1//EN" "http://www.w3.org/Graphics/SVG/1.1/DTD/svg11.dtd">
<svg width="100%" height="100%" viewBox="0 0 30 30" version="1.1" xmlns="http://www.w3.org/2000/svg" xmlns:xlink="http://www.w3.org/1999/xlink" xml:space="preserve" xmlns:serif="http://www.serif.com/" style="fill-rule:evenodd;clip-rule:evenodd;stroke-miterlimit:10;">
    <path id="background" d="M3,0L27,0C28.7,0 30,1.3 30,3L30,27C30,28.7 28.7,30 27,30L3,30C1.3,30 0,28.7 0,27L0,3C0,1.3 1.3,0 3,0Z" style="fill:url(#_Linear1);fill-rule:nonzero;"/>
    <g id="Face" transform="matrix(0.223404,0,0,0.223406,7.85106,8.47695)">
        <path id="ears-and-antenna" serif:id="ears and antenna" d="M50.2,17L49.5,5.7L49.7,5.5C50.2,5 50.4,4.3 50.4,3.3C50.4,2 49.3,1.1 47.9,1.1C46.6,1.1 45.5,2.2 45.5,3.3C45.5,4.3 45.7,5 46.3,5.5L46.5,5.7L46,17L50.2,17ZM8.9,23.9C4.4,23.9 0.7,27.6 0.7,32.3L0.7,39.1C0.7,43.7 4.4,47.5 8.9,47.5L55.1,47.5C59.6,47.5 63.3,43.8 63.3,39.1L63.3,32.3C63.3,27.7 59.6,23.9 55.1,23.9L8.9,23.9Z" style="fill:rgb(255,144,153);"/>
        <path id="external-face" serif:id="external face" d="M46.2,14.8L17.8,14.8C10.3,14.8 4.2,21 4.2,28.6L4.2,39.9C4.2,48 10,54.9 17.9,56.2C27.2,57.8 36.8,57.8 46.1,56.2C54,54.9 59.8,48 59.8,39.9L59.8,28.5C59.8,20.9 53.7,14.8 46.2,14.8Z" style="fill:white;"/>
        <path id="internal-face" serif:id="internal face" d="M42.7,19.4L21.3,19.4C15.5,19.4 11.3,23.1 11.3,28.5L11.3,40.4C11.3,46.3 15.6,51.2 21.4,51.9C28.4,52.7 35.5,52.7 42.6,51.9C48.3,51.2 52.7,46.3 52.7,40.4L52.7,28.5C52.7,23.1 48.4,19.4 42.7,19.4Z" style="fill:rgb(238,238,238);stroke:rgb(221,221,221);stroke-width:0.3px;"/>
        <path id="eyes-and-mouth" serif:id="eyes and mouth" d="M23.7,39.4L40,39.4C40,39.4 39.2,44.8 32,44.8C25.2,44.8 23.7,39.4 23.7,39.4ZM24.3,26.1C24,26.4 23.8,26.8 23.8,27.2C23.8,28 24.4,28.6 25.2,28.6C25.7,28.6 26.2,28.3 26.4,27.9C26.7,28.5 26.9,29.2 26.9,30C26.9,32.2 25.1,34.1 22.9,34.1C20.7,34.1 18.9,32.3 18.9,30C18.9,27.7 20.7,25.9 22.9,25.9C23.4,25.9 23.8,26 24.3,26.1ZM42.4,26.1C42.2,26.4 42,26.7 42,27.1C42,27.9 42.6,28.6 43.4,28.6C43.9,28.6 44.3,28.4 44.6,28C44.9,28.6 45.1,29.3 45.1,30.1C45.1,32.3 43.3,34.2 41.1,34.2C38.9,34.2 37.1,32.4 37.1,30.1C37.1,27.8 38.9,26 41.1,26C41.6,25.9 42,26 42.4,26.1Z" style="fill:url(#_Linear2);"/>
    </g>
    <g transform="matrix(0.541799,0,0,0.541799,6.71736,13.3623)">
        <g transform="matrix(8,0,0,8,0,0)">
            <path d="M0.156,-0.066L0.156,0.199L0.068,0.199L0.068,-0.491C0.068,-0.546 0.076,-0.589 0.091,-0.62C0.105,-0.651 0.131,-0.677 0.167,-0.698C0.203,-0.718 0.243,-0.728 0.288,-0.728C0.353,-0.728 0.403,-0.709 0.436,-0.672C0.47,-0.634 0.487,-0.593 0.487,-0.548C0.487,-0.505 0.473,-0.47 0.446,-0.443C0.419,-0.416 0.388,-0.4 0.353,-0.394C0.409,-0.388 0.453,-0.368 0.484,-0.333C0.514,-0.297 0.53,-0.254 0.53,-0.203C0.53,-0.147 0.512,-0.098 0.475,-0.054C0.439,-0.01 0.387,0.012 0.318,0.012C0.248,0.012 0.194,-0.014 0.156,-0.066ZM0.233,-0.422C0.293,-0.422 0.337,-0.432 0.364,-0.453C0.392,-0.474 0.405,-0.504 0.405,-0.543C0.405,-0.575 0.394,-0.602 0.37,-0.624C0.347,-0.645 0.318,-0.656 0.283,-0.656C0.253,-0.656 0.227,-0.648 0.204,-0.632C0.182,-0.616 0.168,-0.598 0.163,-0.579C0.158,-0.559 0.156,-0.525 0.156,-0.476L0.156,-0.279C0.156,-0.223 0.16,-0.182 0.167,-0.156C0.175,-0.129 0.192,-0.106 0.218,-0.084C0.243,-0.063 0.273,-0.053 0.307,-0.053C0.347,-0.053 0.379,-0.067 0.403,-0.094C0.427,-0.122 0.438,-0.157 0.438,-0.198C0.438,-0.232 0.43,-0.262 0.412,-0.289C0.395,-0.316 0.373,-0.334 0.348,-0.344C0.322,-0.353 0.288,-0.358 0.246,-0.358L0.233,-0.358L0.233,-0.422Z" style="fill:rgb(255,144,153);fill-rule:nonzero;"/>
        </g>
    </g>
    <defs>
        <linearGradient id="_Linear1" x1="0" y1="0" x2="1" y2="0" gradientUnits="userSpaceOnUse" gradientTransform="matrix(-0.0316,29.8873,-29.8873,-0.0316,15.0157,0.1683)"><stop offset="0" style="stop-color:rgb(187,187,187);stop-opacity:1"/><stop offset="1" style="stop-color:white;stop-opacity:1"/></linearGradient>
        <linearGradient id="_Linear2" x1="0" y1="0" x2="1" y2="0" gradientUnits="userSpaceOnUse" gradientTransform="matrix(5.85936,0,0,5.85936,18.9076,35.3086)"><stop offset="0" style="stop-color:rgb(100,100,100);stop-opacity:1"/><stop offset="1" style="stop-color:rgb(34,34,34);stop-opacity:1"/></linearGradient>
    </defs>
</svg>
