<?xml version="1.0" encoding="UTF-8" standalone="no"?>
<svg
   xmlns:dc="http://purl.org/dc/elements/1.1/"
   xmlns:cc="http://creativecommons.org/ns#"
   xmlns:rdf="http://www.w3.org/1999/02/22-rdf-syntax-ns#"
   xmlns:svg="http://www.w3.org/2000/svg"
   xmlns="http://www.w3.org/2000/svg"
   xmlns:xlink="http://www.w3.org/1999/xlink"
   xmlns:sodipodi="http://sodipodi.sourceforge.net/DTD/sodipodi-0.dtd"
   xmlns:inkscape="http://www.inkscape.org/namespaces/inkscape"
   inkscape:export-ydpi="1638.4"
   inkscape:export-xdpi="1638.4"
   inkscape:export-filename="C:\Users\saver\Documents\GitHub\Sav22999\common-voice-android\Images\icon512.png"
   inkscape:version="1.0 (4035a4fb49, 2020-05-01)"
   sodipodi:docname="icon.svg"
   id="svg6"
   version="1.1"
   viewBox="0 0 30 30"
   height="30"
   width="30">
  <metadata
     id="metadata12">
    <rdf:RDF>
      <cc:Work
         rdf:about="">
        <dc:format>image/svg+xml</dc:format>
        <dc:type
           rdf:resource="http://purl.org/dc/dcmitype/StillImage" />
      </cc:Work>
    </rdf:RDF>
  </metadata>
  <defs
     id="defs10">
    <linearGradient
       id="linearGradient2496"
       inkscape:collect="always">
      <stop
         id="stop2492"
         offset="0"
         style="stop-color:#646464;stop-opacity:1;" />
      <stop
         id="stop2494"
         offset="1"
         style="stop-color:#222222;stop-opacity:1" />
    </linearGradient>
    <linearGradient
       gradientUnits="userSpaceOnUse"
       y2="30.055981"
       x2="15.383934"
       y1="0.1687353"
       x1="15.415527"
       id="linearGradient2498"
       xlink:href="#linearGradient2496"
       inkscape:collect="always" />
    <linearGradient
       gradientUnits="userSpaceOnUse"
       y2="35.325764"
       x2="45.148087"
       y1="35.325764"
       x1="18.919937"
       id="linearGradient872"
       xlink:href="#linearGradient2496"
       inkscape:collect="always" />
  </defs>
  <sodipodi:namedview
     inkscape:document-rotation="0"
     inkscape:current-layer="cv-icon"
     inkscape:window-maximized="1"
     inkscape:window-y="-8"
     inkscape:window-x="-8"
     inkscape:cy="15.583433"
     inkscape:cx="12.997045"
     inkscape:zoom="44.500588"
     showgrid="false"
     id="namedview8"
     inkscape:window-height="1002"
     inkscape:window-width="1920"
     inkscape:pageshadow="2"
     inkscape:pageopacity="0"
     guidetolerance="10"
     gridtolerance="10"
     objecttolerance="10"
     borderopacity="1"
     bordercolor="#666666"
     pagecolor="#ffffff" />
  <rect
     inkscape:label="background"
     rx="3"
     y="0"
     x="0"
     height="30"
     width="30"
     id="rect2475-2"
     style="display:inline;opacity:1;fill:url(#linearGradient2498);fill-opacity:1;stroke:none;stroke-width:7.60302;stroke-linecap:round;stroke-linejoin:miter;stroke-miterlimit:2;stroke-dasharray:none;stroke-dashoffset:0;stroke-opacity:1;paint-order:normal" />
  <g
     sodipodi:insensitive="true"
     inkscape:label="Face"
     inkscape:export-ydpi="1638.4"
     inkscape:export-xdpi="1638.4"
     style="display:inline;fill:none;fill-rule:evenodd;stroke:none;stroke-width:1"
     transform="matrix(0.3125,0,0,0.31250228,5,5.873162)"
     id="cv-icon">
    <path
       inkscape:label="ears and antenna"
       style="display:inline;fill:#ff9099;fill-opacity:1;stroke:none;stroke-width:1.33333;stroke-opacity:1"
       inkscape:connector-curvature="0"
       id="Shape"
       d="M 50.16367,17.039216 49.507126,5.6949438 49.745641,5.4806389 c 0.503918,-0.4527683 0.723628,-1.1511646 0.723628,-2.2061288 0,-1.2597698 -1.082705,-2.2137086 -2.469269,-2.2137086 -1.290104,0 -2.446593,1.0849967 -2.446593,2.2137086 0,0.9940791 0.242366,1.7140646 0.754606,2.1845556 L 46.53655,5.668977 46.042495,17.039216 Z m -41.2747811,6.90552 c -4.5388118,0 -8.22222223,3.737579 -8.22222223,8.352942 v 6.754883 c 0,4.615363 3.68341043,8.352941 8.22222223,8.352941 H 55.111111 c 4.538812,0 8.222222,-3.737578 8.222222,-8.352941 v -6.754883 c 0,-4.615363 -3.68341,-8.352942 -8.222222,-8.352942 z" />
    <path
       inkscape:label="external face"
       style="display:inline;fill:#ffffff;fill-opacity:1;stroke:none;stroke-width:1.33333;stroke-opacity:1"
       inkscape:connector-curvature="0"
       id="path7"
       d="M 46.222222,14.764706 H 17.777778 c -7.484331,0 -13.5555558,6.160508 -13.5555558,13.764706 v 11.298041 c 0,8.110665 5.7857738,15.025172 13.6652198,16.339218 9.345697,1.55857 18.879419,1.55857 28.225116,0 7.879446,-1.314046 13.66522,-8.228553 13.66522,-16.339218 V 28.529412 c 0,-7.604198 -6.071225,-13.764706 -13.555556,-13.764706 z" />
    <path
       inkscape:label="internal face"
       style="display:inline;fill:#eeeeee;fill-opacity:1;stroke:#dddddd;stroke-width:1.33333;stroke-opacity:1"
       inkscape:connector-curvature="0"
       id="Rectangle-Copy-4"
       d="M 42.666667,19.442374 H 21.333333 c -5.773922,0 -10,3.70267 -10,9.087038 v 11.912514 c 0,5.867477 4.338742,10.796356 10.076056,11.455189 7.03795,0.808189 14.143272,0.808189 21.181222,0 5.737314,-0.658833 10.076056,-5.587712 10.076056,-11.455189 V 28.529412 c 0,-5.384368 -4.226078,-9.087038 -10,-9.087038 z" />
    <path
       inkscape:label="eyes and mouth"
       style="display:inline;fill:url(#linearGradient872);fill-opacity:1.0"
       inkscape:connector-curvature="0"
       id="path10"
       d="m 23.74159,39.352942 h 16.271308 c 0,0 -0.831485,5.411764 -8.012898,5.411764 -6.812195,0 -8.25841,-5.411764 -8.25841,-5.411764 z m 0.522717,-13.221767 c -0.3185,0.258692 -0.522717,0.658065 -0.522717,1.106192 0,0.779897 0.618537,1.412129 1.381541,1.412129 0.527143,0 0.985329,-0.301771 1.218229,-0.745522 0.345177,0.60276 0.543023,1.304383 0.543023,2.053238 0,2.248013 -1.782902,4.070387 -3.982223,4.070387 -2.19932,0 -3.982222,-1.822374 -3.982222,-4.070387 0,-2.248013 1.782902,-4.070387 3.982222,-4.070387 0.478445,0 0.937184,0.08624 1.362147,0.24435 z m 18.117536,-0.0511 c -0.225503,0.257257 -0.362646,0.597116 -0.362646,0.969714 0,0.802862 0.636751,1.45371 1.422223,1.45371 0.477477,0 0.899997,-0.240505 1.157937,-0.609461 0.348703,0.604979 0.548729,1.310198 0.548729,2.063171 0,2.248013 -1.782901,4.070387 -3.982222,4.070387 -2.199321,0 -3.982222,-1.822374 -3.982222,-4.070387 0,-2.248013 1.782901,-4.070387 3.982222,-4.070387 0.424074,0 0.832666,0.06775 1.215979,0.193253 z" />
  </g>
</svg>
