<?xml version="1.0" encoding="utf-8"?>
<!-- Generator: Adobe Illustrator 24.3.0, SVG Export Plug-In . SVG Version: 6.00 Build 0)  -->
<svg version="1.1"
	 id="svg6" inkscape:export-filename="Z:\Documents\GitHub\Sav22999\common-voice-android\images\icon.png" inkscape:export-xdpi="3276.8" inkscape:export-ydpi="3276.8" inkscape:version="1.0 (4035a4fb49, 2020-05-01)" sodipodi:docname="icon_to_zoom.svg" xmlns:cc="http://creativecommons.org/ns#" xmlns:dc="http://purl.org/dc/elements/1.1/" xmlns:inkscape="http://www.inkscape.org/namespaces/inkscape" xmlns:rdf="http://www.w3.org/1999/02/22-rdf-syntax-ns#" xmlns:sodipodi="http://sodipodi.sourceforge.net/DTD/sodipodi-0.dtd" xmlns:svg="http://www.w3.org/2000/svg"
	 xmlns="http://www.w3.org/2000/svg" xmlns:xlink="http://www.w3.org/1999/xlink" x="0px" y="0px" viewBox="0 0 30 30"
	 style="enable-background:new 0 0 30 30;" xml:space="preserve">
<style type="text/css">
	.st0{fill:url(#rect2475-2_1_);}
	.st1{fill-rule:evenodd;clip-rule:evenodd;fill:#FF9099;}
	.st2{fill-rule:evenodd;clip-rule:evenodd;fill:#FFFFFF;}
	.st3{fill-rule:evenodd;clip-rule:evenodd;fill:#EEEEEE;stroke:#DDDDDD;stroke-width:0.2979;stroke-miterlimit:10;}
	.st4{fill-rule:evenodd;clip-rule:evenodd;fill:url(#path10_1_);}
</style>
<sodipodi:namedview  bordercolor="#666666" borderopacity="1" gridtolerance="10" guidetolerance="10" id="namedview8" inkscape:current-layer="svg6" inkscape:cx="2.6967559" inkscape:cy="14.676357" inkscape:document-rotation="0" inkscape:pageopacity="0" inkscape:pageshadow="2" inkscape:window-height="1002" inkscape:window-maximized="1" inkscape:window-width="1920" inkscape:window-x="-8" inkscape:window-y="-8" inkscape:zoom="15.733334" objecttolerance="10" pagecolor="#ffffff" showgrid="false">
	</sodipodi:namedview>
<linearGradient id="rect2475-2_1_" gradientUnits="userSpaceOnUse" x1="15.0157" y1="31.8317" x2="14.9841" y2="1.9444" gradientTransform="matrix(1 0 0 -1 0 32)">
	<stop  offset="0" style="stop-color:#646464"/>
	<stop  offset="1" style="stop-color:#222222"/>
</linearGradient>
<path id="rect2475-2" inkscape:export-xdpi="1638.4" inkscape:export-ydpi="1638.4" inkscape:label="background" class="st0" d="
	M3,0h24c1.7,0,3,1.3,3,3v24c0,1.7-1.3,3-3,3H3c-1.7,0-3-1.3-3-3V3C0,1.3,1.3,0,3,0z"/>
<g id="cv-icon" transform="matrix(0.22340426,0,0,0.22340589,7.8510637,8.4769501)" inkscape:export-xdpi="1638.4" inkscape:export-ydpi="1638.4" inkscape:label="Face" sodipodi:insensitive="true">
	<path id="Shape" inkscape:connector-curvature="0" inkscape:label="ears and antenna" class="st1" d="M50.2,17L49.5,5.7l0.2-0.2
		c0.5-0.5,0.7-1.2,0.7-2.2c0-1.3-1.1-2.2-2.5-2.2c-1.3,0-2.4,1.1-2.4,2.2c0,1,0.2,1.7,0.8,2.2l0.2,0.2L46,17H50.2z M8.9,23.9
		c-4.5,0-8.2,3.7-8.2,8.4v6.8c0,4.6,3.7,8.4,8.2,8.4h46.2c4.5,0,8.2-3.7,8.2-8.4v-6.8c0-4.6-3.7-8.4-8.2-8.4L8.9,23.9z"/>
	<path id="path7" inkscape:connector-curvature="0" inkscape:label="external face" class="st2" d="M46.2,14.8H17.8
		c-7.5,0-13.6,6.2-13.6,13.8v11.3c0,8.1,5.8,15,13.7,16.3c9.3,1.6,18.9,1.6,28.2,0c7.9-1.3,13.7-8.2,13.7-16.3V28.5
		C59.8,20.9,53.7,14.8,46.2,14.8z"/>
	<path id="Rectangle-Copy-4" inkscape:connector-curvature="0" inkscape:label="internal face" class="st3" d="M42.7,19.4H21.3
		c-5.8,0-10,3.7-10,9.1v11.9c0,5.9,4.3,10.8,10.1,11.5c7,0.8,14.1,0.8,21.2,0c5.7-0.7,10.1-5.6,10.1-11.5V28.5
		C52.7,23.1,48.4,19.4,42.7,19.4z"/>
	
		<linearGradient id="path10_1_" gradientUnits="userSpaceOnUse" x1="2912.6064" y1="-2915.8384" x2="2938.8345" y2="-2915.8384" gradientTransform="matrix(0.2234 0 0 -0.2234 -631.7687 -616.0897)">
		<stop  offset="0" style="stop-color:#646464"/>
		<stop  offset="1" style="stop-color:#222222"/>
	</linearGradient>
	<path id="path10" inkscape:connector-curvature="0" inkscape:label="eyes and mouth" class="st4" d="M23.7,39.4H40
		c0,0-0.8,5.4-8,5.4C25.2,44.8,23.7,39.4,23.7,39.4z M24.3,26.1c-0.3,0.3-0.5,0.7-0.5,1.1c0,0.8,0.6,1.4,1.4,1.4
		c0.5,0,1-0.3,1.2-0.7c0.3,0.6,0.5,1.3,0.5,2.1c0,2.2-1.8,4.1-4,4.1c-2.2,0-4-1.8-4-4.1s1.8-4.1,4-4.1C23.4,25.9,23.8,26,24.3,26.1z
		 M42.4,26.1c-0.2,0.3-0.4,0.6-0.4,1c0,0.8,0.6,1.5,1.4,1.5c0.5,0,0.9-0.2,1.2-0.6c0.3,0.6,0.5,1.3,0.5,2.1c0,2.2-1.8,4.1-4,4.1
		c-2.2,0-4-1.8-4-4.1s1.8-4.1,4-4.1C41.6,25.9,42,26,42.4,26.1z"/>
</g>
</svg>
