<?xml version="1.0" encoding="UTF-8" standalone="no"?>
<svg
   xmlns:dc="http://purl.org/dc/elements/1.1/"
   xmlns:cc="http://creativecommons.org/ns#"
   xmlns:rdf="http://www.w3.org/1999/02/22-rdf-syntax-ns#"
   xmlns:svg="http://www.w3.org/2000/svg"
   xmlns="http://www.w3.org/2000/svg"
   xmlns:xlink="http://www.w3.org/1999/xlink"
   xmlns:sodipodi="http://sodipodi.sourceforge.net/DTD/sodipodi-0.dtd"
   xmlns:inkscape="http://www.inkscape.org/namespaces/inkscape"
   width="224px"
   height="382px"
   viewBox="0 0 224 382"
   version="1.1"
   id="svg122"
   sodipodi:docname="robot.svg"
   inkscape:version="1.0 (4035a4fb49, 2020-05-01)"
   inkscape:export-filename="Z:\Documents\GitHub\Sav22999\common-voice-android\images\other\robot.png"
   inkscape:export-xdpi="431.21793"
   inkscape:export-ydpi="431.21793">
  <metadata
     id="metadata126">
    <rdf:RDF>
      <cc:Work
         rdf:about="">
        <dc:format>image/svg+xml</dc:format>
        <dc:type
           rdf:resource="http://purl.org/dc/dcmitype/StillImage" />
      </cc:Work>
    </rdf:RDF>
  </metadata>
  <sodipodi:namedview
     inkscape:document-rotation="0"
     pagecolor="#ffffff"
     bordercolor="#666666"
     borderopacity="1"
     objecttolerance="10"
     gridtolerance="10"
     guidetolerance="10"
     inkscape:pageopacity="0"
     inkscape:pageshadow="2"
     inkscape:window-width="1920"
     inkscape:window-height="1002"
     id="namedview124"
     showgrid="false"
     inkscape:zoom="2.1989529"
     inkscape:cx="112"
     inkscape:cy="174.26677"
     inkscape:window-x="-8"
     inkscape:window-y="-8"
     inkscape:window-maximized="1"
     inkscape:current-layer="svg122"
     inkscape:snap-smooth-nodes="true" />
  <!-- Generator: Sketch 51.2 (57519) - http://www.bohemiancoding.com/sketch -->
  <title
     id="title2">Mars</title>
  <desc
     id="desc4">Created with Sketch.</desc>
  <defs
     id="defs46">
    <path
       d="M14.0208,63.5776 L13.8784,63.4976 C12.6932855,65.8787592 10.3023755,67.4226018 7.64449056,67.5229187 C4.98660563,67.6232356 2.48612474,66.2640095 1.12489276,63.9789573 C-0.236339216,61.6939052 -0.240977189,58.8478766 1.1128,56.5584 L1.0384,56.5184 L26.2896,0.2536 L42.0872,5.3608 L14.0208,63.5776 Z M206.3832,63.5776 L206.5248,63.4976 C207.708542,65.8816439 210.100447,67.4282387 212.760272,67.5294283 C215.420097,67.6306179 217.922594,66.2702242 219.284048,63.983009 C220.645502,61.6957937 220.648246,58.8474335 219.2912,56.5576 L219.3656,56.5176 L194.1144,0.2464 L178.32,5.3528 L206.3832,63.5776 Z"
       id="path-1" />
    <linearGradient
       x1="39.5113579%"
       y1="99.1975388%"
       x2="41.4092116%"
       y2="-19.2501163%"
       id="linearGradient-3">
      <stop
         stop-color="#FF656E"
         offset="0%"
         id="stop7" />
      <stop
         stop-color="#C5C9FF"
         offset="100%"
         id="stop9" />
    </linearGradient>
    <radialGradient
       cx="51.4115306%"
       cy="37.9489163%"
       fx="51.4115306%"
       fy="37.9489163%"
       r="110.612621%"
       gradientTransform="translate(0.514115,0.379489),scale(1.000000,0.525839),rotate(90.000000),scale(1.000000,0.594945),translate(-0.514115,-0.379489)"
       id="radialGradient-4">
      <stop
         stop-color="#FFFFFF"
         offset="0%"
         id="stop12" />
      <stop
         stop-color="#FAFCFF"
         offset="76.5986272%"
         id="stop14" />
      <stop
         stop-color="#F2F2F2"
         offset="100%"
         id="stop16" />
    </radialGradient>
    <path
       d="M167.128,73.744 C167.128,81.6937072 165.856995,88.2840003 163.766439,93.7473356 C157.391798,110.406444 143.397,116.587141 134.5816,118.88 C128.718152,120.317771 116.073569,124.524 87.4248,124.524 C58.7760313,124.524 44.8746638,120.027307 40.0777111,118.88 C31.7352966,116.940212 18.7168184,111.620878 12.1203264,96.2945124 C11.1465912,94.0321249 10.3127905,91.5516849 9.65462136,88.8318752 C8.5948192,84.4523627 7.9904,79.4522046 7.9904,73.7424 L7.9904,46.5656 C7.9904,42.111602 8.37156742,38.0843324 9.06082678,34.4429072 C9.62931523,31.4395267 10.4073878,28.6986225 11.3540439,26.197256 C21.2332933,0.0931382099 49.4728,0.0768 49.4728,0.0768 L125.6448,0.0768 C125.6448,0.0768 150.090053,0.0909427393 161.449945,21.1162954 C164.888394,27.480319 167.128,35.7693306 167.128,46.5656 L167.128,73.744 Z M156.788,212.216 C156.788,212.216 156.9624,209.1016 160.408,169.5544 C163.8816,129.6784 129.924,132.1752 129.924,132.1752 L86.3736,131.1808 L46.8888,132.1752 C46.8888,132.1752 13.8448,128.8024 16.4088,169.5544 C18.8984,209.1744 19.304,212.216 19.304,212.216 C19.304,212.216 20.3768,223.7824 20.4064,227.4336 C20.504,239.4112 23.996,280.3744 42.7464,291.7048 C66.7464,306.2064 109.5392,306.5552 132.9872,291.7048 C151.4984,279.98 155.2272,239.4112 155.3272,227.4336 C155.3536,223.7824 156.788,212.216 156.788,212.216 Z"
       id="path-5" />
    <radialGradient
       cx="50.0015471%"
       cy="43.9615936%"
       fx="50.0015471%"
       fy="43.9615936%"
       r="74.855661%"
       gradientTransform="translate(0.500015,0.439616),scale(0.733356,1.000000),rotate(180.000000),scale(1.000000,0.790740),translate(-0.500015,-0.439616)"
       id="radialGradient-7">
      <stop
         stop-color="#FFFFFF"
         offset="0%"
         id="stop20" />
      <stop
         stop-color="#FAFCFF"
         offset="76.5986272%"
         id="stop22" />
      <stop
         stop-color="#E0E0E0"
         offset="100%"
         id="stop24" />
    </radialGradient>
    <path
       d="M0.112803789,0.4 L49.8192004,0.4 C49.8192004,0.4 49.9009782,16.7104 24.8020759,16.7104 C0.993581304,16.7104 0.112803789,0.4 0.112803789,0.4 Z"
       id="path-8" />
    <filter
       x="-3.0%"
       y="-9.2%"
       width="106.0%"
       height="118.4%"
       filterUnits="objectBoundingBox"
       id="filter-10">
      <feOffset
         dx="0"
         dy="-3"
         in="SourceAlpha"
         result="shadowOffsetInner1"
         id="feOffset28" />
      <feComposite
         in="shadowOffsetInner1"
         in2="SourceAlpha"
         operator="arithmetic"
         k2="-1"
         k3="1"
         result="shadowInnerInner1"
         id="feComposite30" />
      <feColorMatrix
         values="0 0 0 0 0.290196078   0 0 0 0 0.290196078   0 0 0 0 0.290196078  0 0 0 1 0"
         type="matrix"
         in="shadowInnerInner1"
         id="feColorMatrix32" />
    </filter>
    <path
       d="M72.5952,40.24 C74.1112,27.936 74.4352,16.1424 72.7232,5.0104 C72.4822306,3.02040446 70.7965216,1.52165341 68.792,1.5152 C47.6700568,-0.0584664018 26.467914,-0.251677172 5.3208,0.9368 C3.3138206,0.939023798 1.62597999,2.44261134 1.3928,4.436 C-0.3632,14.9048 -0.48,30.04 1.548,40.2704 C1.8454829,42.0761211 3.30239983,43.4667997 5.12,43.68 C26.3673692,45.8230925 47.7769171,45.8137115 69.0224,43.652 C70.8946216,43.5579202 72.4150631,42.1059088 72.5952,40.24 Z"
       id="path-11" />
    <linearGradient
       x1="25.7962455%"
       y1="100%"
       x2="25.7962455%"
       y2="-30.1274252%"
       id="linearGradient-13">
      <stop
         stop-color="#FF656E"
         offset="0%"
         id="stop36" />
      <stop
         stop-color="#C5C9FF"
         offset="100%"
         id="stop38" />
    </linearGradient>
    <circle
       id="path-14"
       cx="11.1752"
       cy="11.4872"
       r="10.7752" />
    <circle
       id="path-15"
       cx="11.1752"
       cy="11.4872"
       r="10.7752" />
    <filter
       x="0.0%"
       y="0.0%"
       width="100.0%"
       height="100.0%"
       filterUnits="objectBoundingBox"
       id="filter-16">
      <feGaussianBlur
         stdDeviation="0"
         in="SourceGraphic"
         id="feGaussianBlur43" />
    </filter>
  </defs>
  <g
     id="Homepage"
     stroke="none"
     stroke-width="1"
     fill="none"
     fill-rule="evenodd"
     inkscape:export-xdpi="431.21793"
     inkscape:export-ydpi="431.21793">
    <g
       id="Homepage_01.1"
       transform="translate(-343,-1372)">
      <g
         id="g118"
         transform="translate(0,1361)">
        <g
           id="robo/1.eq-n"
           transform="translate(345,14)">
          <g
             id="rooo_copy_3"
             stroke-width="1"
             fill-rule="evenodd">
            <path
               d="m 36.0576,281.6864 c 5.68,-3.0864 8.96,1.3904 11.6464,6.3264 2.6864,4.936 3.76,8.4624 -1.92,11.5488 -5.68,3.0864 -12.4616,1.5856 -15.1464,-3.3504 -2.6848,-4.936 -0.26,-11.4392 5.42,-14.5248 z m 151.9536,-0.3128 c -5.6744,-3.076 -12.4496,-1.5808 -15.132,3.3408 -2.6824,4.9216 -0.2568,11.404 5.4176,14.48 5.6744,3.076 12.4504,1.5808 15.1328,-3.34 2.6824,-4.9208 0.2568,-11.404 -5.4184,-14.4808 z"
               id="Ellipse_4_copy"
               stroke="#000000"
               stroke-width="2.4"
               fill="#e5e5e5"
               style="fill:#eeeeee;fill-opacity:1;stroke:#dddddd;stroke-opacity:1" />
            <g
               id="Shape"
               transform="translate(0,205.6)"
               style="fill:#eeeeee;fill-opacity:1;stroke:#dddddd;stroke-opacity:1">
              <mask
                 id="mask-2"
                 fill="#ffffff">
                <use
                   xlink:href="#path-1"
                   id="use49"
                   x="0"
                   y="0"
                   width="100%"
                   height="100%" />
              </mask>
              <use
                 id="Mask"
                 stroke="#000000"
                 stroke-width="2.4"
                 fill="#e5e5e5"
                 xlink:href="#path-1"
                 x="0"
                 y="0"
                 width="100%"
                 height="100%"
                 style="fill:#eeeeee;fill-opacity:1;stroke:#dddddd;stroke-opacity:1" />
            </g>
            <path
               d="m 4.08,273.0184 0.08,-0.1424 c -2.405877,-1.1713 -3.97526557,-3.56803 -4.08698627,-6.24155 -0.11172071,-2.67352 1.25223667,-5.19283 3.55200447,-6.56077 2.2997678,-1.36793 5.1646053,-1.36397 7.4605818,0.0103 l 33.3272,15.4168 2.64,16.4632 z m 212.24,0 -0.08,-0.1424 c 2.85492,-1.42014 4.45516,-4.53131 3.95008,-7.67969 -0.50508,-3.14837 -2.9982,-5.60286 -6.15408,-6.05871 -3.3896,-0.48 -4.7616,0.8712 -4.7616,0.8712 l -56.1528,25.304 5.0968,15.8312 z"
               id="Ellipse_3_copy_2-2"
               stroke="#000000"
               stroke-width="2.4"
               fill="#ffffff"
               style="fill:#eeeeee;fill-opacity:1;stroke:#dddddd;stroke-opacity:1" />
            <path
               d="m 146.03627,7.6141185 0.29989,-0.3932271 -0.34573,-0.011216 -0.27523,0.00713 z m 0,0 0.41984,0.5195361 c -0.22081,0.178437 -0.62526,0.1784737 -0.83195,0.020843 z m -1.08864,-1.3471446 c 0.65047,-0.5256489 1.46989,-0.5257234 2.13191,-0.020843 l 0.45703,0.348542 1.03644,40.0160481 h -5.3503 l 1.29761,-39.9984294 z m 1.05266,-7.3931674 c 2.29273,6.016e-4 4.15098,1.8595032 4.15078,4.1522354 -2e-4,2.2927322 -1.85878,4.1513088 -4.15151,4.1515093 -2.29273,2.005e-4 -4.15163,-1.8580509 -4.15223,-4.1507831 -2.9e-4,-1.1015224 0.43716,-2.15801239 1.21605,-2.93690642 0.7789,-0.77889403 1.83539,-1.21634418 2.93691,-1.21605518 z"
               id="path57"
               stroke="#000007"
               stroke-width="2.4"
               style="fill:#ff9099;fill-opacity:1;stroke:#ff9099;stroke-opacity:1" />
            <path
               d="m 68.028,178.7264 c 0,0 -29.1712,-1.6496 -49.3552,25.4208 -1.582164,2.13782 -3.002129,4.39105 -4.248,6.7408 -0.776023,1.30255 -0.760593,2.9292 0.04,4.2168 2.48,4.364 10.16,15.0952 29.9656,15.8304 C 55.8112,182.26 68.028,178.7264 68.028,178.7264 Z m 89.8904,-0.2608 c 0,0 30.08,0.5216 47.456,26.1896 1.57964,2.13793 2.99694,4.39116 4.24,6.7408 0.77529,1.30275 0.75987,2.92899 -0.04,4.2168 -2.48,4.364 -9.0296,14.2704 -28.8088,15.0056 C 173.2728,184.3736 157.92,178.4656 157.92,178.4656 Z"
               id="Shape_1_copy_9"
               stroke="#000000"
               stroke-width="2.4"
               fill="url(#linearGradient-3)"
               style="fill:#ff9099;fill-opacity:1;stroke:none;stroke-opacity:1" />
            <g
               id="Shape_17_copy"
               transform="translate(24,46.4)"
               style="fill:#fafafa;fill-opacity:1;stroke:#fafafa;stroke-opacity:1">
              <path
                 d="m 163.0936,92.7304 c 4.9664,-0.088 11.5384,3.970408 11.5384,-33.1944 0,-37.164808 -6.572,-33.1064 -11.5384,-33.1944 M 12.2528,92.7304 c -4.9664,-0.088 -12.1976,0 -12.1976,-33.1944 0,-33.1944 7.2312,-33.1064 12.1976,-33.1944"
                 id="Ellipse_1_copy_4-2"
                 stroke="#000000"
                 stroke-width="2.4"
                 fill="url(#linearGradient-3)"
                 style="fill:#ff9099;fill-opacity:1;stroke:#ff9099;stroke-opacity:1" />
              <mask
                 id="mask-6"
                 fill="#ffffff">
                <use
                   xlink:href="#path-5"
                   id="use61"
                   x="0"
                   y="0"
                   width="100%"
                   height="100%" />
              </mask>
              <use
                 id="use64"
                 stroke="#000000"
                 stroke-width="2.4"
                 fill="url(#radialGradient-4)"
                 xlink:href="#path-5"
                 x="0"
                 y="0"
                 width="100%"
                 height="100%"
                 style="fill:#fafafa;fill-opacity:1;stroke:#fafafa;stroke-opacity:1" />
            </g>
            <ellipse
               id="Oval"
               stroke="#000005"
               stroke-width="0.8"
               cx="140.60001"
               cy="279.2872"
               rx="2.5752001"
               ry="2.5624001"
               style="fill:#ff505f;fill-opacity:1;stroke:none" />
            <circle
               id="Ellipse_15_copy_2"
               fill="#000007"
               fill-rule="nonzero"
               cx="131.3624"
               cy="279.2872"
               r="2.5624001"
               style="fill:#5accb8;fill-opacity:1;stroke:none" />
            <path
               d="m 120.6192,303.7664 c 13.39403,0.0412 26.76755,-1.0504 39.9776,-3.2632 m -97.4184,-1.0248 c 12.498163,1.92151 25.087628,3.19308 37.7176,3.8096"
               id="Shape_18_copy"
               stroke="#000007"
               stroke-width="2.4"
               stroke-linecap="round"
               stroke-linejoin="round"
               style="fill:none;fill-opacity:0;stroke:#eeeeee;stroke-opacity:1" />
            <path
               d="M 73.261539,328.0992 C 60.096094,318.28655 58.1008,260.12 56.8624,234.224 55.0832,197.0352 81.436,200.1128 81.436,200.1128 h 60.5208 c 0,0 26.9888,-2.2784 24.5744,34.1112 -2.4904,37.5456 -3.75738,82.13541 -17.6,93.8752 -13.2035,11.19776 -62.458276,9.84689 -75.669661,0 z"
               id="Shape_4_copy"
               stroke="#000007"
               stroke-width="2.4"
               style="stroke:#eeeeee;stroke-opacity:1" />
            <path
               d="m 204.92472,204.81965 c -1.2568,4.3144 -4.03592,7.17635 -4.33592,6.47235 C 194.388,196.72 181.0656,185.7384 172,180.8 m -118.72,0.7032 c -15.8512,4.82 -26.5512,22.98 -29.0656,29.7888 -3.5032,-0.9936 -6.043589,-6.47235 -6.043589,-6.47235"
               id="path71"
               stroke="#000005"
               stroke-width="2.4"
               stroke-linecap="round"
               stroke-linejoin="round"
               style="fill:none;fill-opacity:1;stroke:none;stroke-opacity:1" />
            <path
               d="m 82.6872,60.4064 c 0,0 -35.2376,0.0216 -35.2376,41.3808 V 110 c 0,29.6216 20.7864,38.6536 26.9504,40.4312 6.6448,1.92 12.0648,4.7696 37.5664,4.7696 13.5264,0 64.7544,1.6704 64.7544,-45.2 v -8.2136 c 0,-41.36 -35.2384,-41.3808 -35.2384,-41.3808 z"
               id="Shape_1_copy_2"
               stroke="#000000"
               stroke-width="2.4"
               fill="url(#radialGradient-7)"
               style="fill:#eeeeee;fill-opacity:1;stroke:#dddddd;stroke-opacity:1" />
            <g
               id="Rectangle-path"
               transform="translate(86.4,120)">
              <mask
                 id="mask-9"
                 fill="#ffffff">
                <use
                   xlink:href="#path-8"
                   id="use74"
                   x="0"
                   y="0"
                   width="100%"
                   height="100%" />
              </mask>
              <g
                 id="g81">
                <use
                   fill="#000007"
                   fill-rule="evenodd"
                   xlink:href="#path-8"
                   id="use77"
                   x="0"
                   y="0"
                   width="100%"
                   height="100%" />
                <use
                   fill="#000000"
                   fill-opacity="1"
                   filter="url(#filter-10)"
                   xlink:href="#path-8"
                   id="use79"
                   x="0"
                   y="0"
                   width="100%"
                   height="100%"
                   style="fill:#222222;fill-opacity:1;stroke:none;stroke-opacity:1" />
              </g>
            </g>
            <path
               d="m 110.88,175.3912 c 15.8328,0 25.6176,-0.2104 25.6176,6.2624 0,6.992 -9.7848,6.2624 -25.6176,6.2624 -15.8328,0 -25.6184,-0.0512 -25.6184,-6.2624 8e-4,-6.1704 9.7864,-6.2624 25.6184,-6.2624 z"
               id="Ellipse_2_copy"
               stroke="#000000"
               stroke-width="2.4"
               fill="#e5e5e5"
               style="fill:#eeeeee;fill-opacity:1;stroke:none;stroke-opacity:1" />
            <g
               id="Group"
               transform="translate(74.4,222.4)">
              <mask
                 id="mask-12"
                 fill="#ffffff">
                <use
                   xlink:href="#path-11"
                   id="use85"
                   x="0"
                   y="0"
                   width="100%"
                   height="100%" />
              </mask>
              <path
                 stroke="#e5e5e5"
                 stroke-width="2.4"
                 d="m 73.787999,40.372091 c -0.244796,2.450182 -2.244272,4.354722 -4.644127,4.473745 C 47.817966,47.015731 26.327374,47.025147 4.9802012,44.871829 2.6312426,44.596302 0.74840958,42.799071 0.37090484,40.503739 -1.6221592,30.449576 -1.6336294,15.224737 0.20092682,4.2965786 0.50478169,1.6990107 2.7041925,-0.26030145 5.2534657,-0.26130938 26.452719,-1.4527168 47.707137,-1.2590297 68.795863,0.31520622 c 2.609996,0.008403 4.80488,1.95985748 5.113393,4.51278918 1.630777,10.6038596 1.519778,22.2174466 -0.121257,35.5440956 z"
                 id="path88" />
              <path
                 d="m -1.5335522,15.719521 c -0.5009857,-2.480923 1.83093016,-3.721385 6.9957476,-3.721385 7.7472256,0 4.7734956,8.393478 22.4406366,8.393478 17.667141,0 11.86553,7.242134 22.964517,7.242134 11.098987,0 6.641244,-17.233748 23.950745,-17.233748 1.527253,0 2.29193,3.833425 2.294032,11.500276 l -2.294032,23.031787 -36.2012,4.318031 -36.8227046,-3.269907 z"
                 id="Path-2-Copy"
                 fill="url(#linearGradient-13)"
                 opacity="0.45"
                 mask="url(#mask-12)" />
              <path
                 d="m -3.2,26.668288 c 1.1722268,-3.24862 4.7361561,-4.87293 10.6917879,-4.87293 8.9334481,0 10.1494701,6.9745 18.7156251,6.9745 8.566155,0 10.428493,-11.969858 20.305945,-11.969858 9.877453,0 8.994133,7.312033 15.605258,7.312033 6.611125,0 7.58201,-4.870566 11.987889,-4.870566 2.937253,0 3.701931,0.851297 2.294033,2.553891 l -2.294033,23.031787 -36.2012,4.318031 -36.822704,-3.269907 z"
                 id="Path-2"
                 fill="url(#linearGradient-13)"
                 opacity="0.7"
                 mask="url(#mask-12)" />
              <path
                 d="m -2.2950121,23.375178 c 5.5704477,9.64453 10.4713708,14.789611 14.7027691,15.435243 6.347098,0.968449 8.813976,-5.310138 15.208643,-5.310138 6.394666,0 8.552049,5.310138 16.413102,5.310138 7.861053,0 10.921486,-11.177582 20.969734,-11.177582 6.698831,0 10.404905,1.955814 11.11822,5.867444 l -1.66248,12.093823 -36.2012,3.351397 -36.8227044,-2.537907 z"
                 id="path92"
                 fill="url(#linearGradient-13)"
                 mask="url(#mask-12)" />
            </g>
            <g
               id="g102"
               transform="translate(72,82.4)"
               fill-rule="nonzero">
              <g
                 id="Group-4">
                <g
                   id="Ellipse_1_copy_5"
                   stroke-width="2.4">
                  <circle
                     stroke="#ffffff"
                     stroke-linejoin="square"
                     fill="#000000"
                     fill-rule="evenodd"
                     cx="11.1752"
                     cy="11.4872"
                     r="9.5752001"
                     id="circle95"
                     style="fill:#222222;fill-opacity:1;stroke:none;stroke-opacity:1" />
                  <circle
                     stroke="#cdcdcd"
                     cx="11.1752"
                     cy="11.4872"
                     r="11.9752"
                     id="circle97"
                     style="fill:none;fill-opacity:1;stroke:#dddddd;stroke-opacity:1" />
                </g>
                <circle
                   id="Ellipse_5_copy"
                   fill="#ffffff"
                   cx="15.1248"
                   cy="5.1999998"
                   r="2.8" />
              </g>
            </g>
            <g
               id="Group-Copy"
               transform="translate(125.6,82.4)"
               fill-rule="nonzero">
              <g
                 id="g112">
                <g
                   id="g108"
                   stroke-width="2.4">
                  <circle
                     stroke="#ffffff"
                     stroke-linejoin="square"
                     fill="#000000"
                     fill-rule="evenodd"
                     cx="11.1752"
                     cy="11.4872"
                     r="9.5752001"
                     id="circle104"
                     style="fill:#222222;fill-opacity:1;stroke:none;stroke-opacity:1" />
                  <circle
                     stroke="#cdcdcd"
                     cx="11.1752"
                     cy="11.4872"
                     r="11.9752"
                     id="circle106"
                     style="stroke:#dddddd;stroke-opacity:1" />
                </g>
                <circle
                   id="circle110"
                   fill="#ffffff"
                   cx="15.1248"
                   cy="5.1999998"
                   r="2.8" />
              </g>
            </g>
          </g>
        </g>
      </g>
    </g>
  </g>
</svg>
