<?xml version="1.0" standalone="no"?>
<!DOCTYPE svg PUBLIC "-//W3C//DTD SVG 20010904//EN"
 "http://www.w3.org/TR/2001/REC-SVG-20010904/DTD/svg10.dtd">
<svg version="1.0" xmlns="http://www.w3.org/2000/svg"
 width="1280.000000pt" height="1074.000000pt" viewBox="0 0 1280.000000 1074.000000"
 preserveAspectRatio="xMidYMid meet">
<metadata>
Created by potrace 1.15, written by Peter Selinger 2001-2017
</metadata>
<g transform="translate(0.000000,1074.000000) scale(0.100000,-0.100000)"
fill="#000000" stroke="none">
<path d="M7280 10683 c122 -106 456 -448 564 -578 826 -994 1265 -2198 1266
-3465 0 -1147 -384 -2295 -1075 -3215 -295 -393 -683 -779 -1075 -1073 -800
-599 -1791 -976 -2760 -1052 -80 -6 -167 -14 -193 -18 l-49 -7 114 -91 c1044
-834 2358 -1254 3671 -1173 1734 106 3304 1033 4227 2494 347 549 599 1177
724 1805 76 381 99 618 100 1040 1 363 -7 488 -49 780 -186 1284 -817 2442
-1795 3295 -973 850 -2226 1315 -3535 1315 l-200 -1 65 -56z"/>
<path d="M4371 8892 c-62 -116 -98 -172 -109 -172 -39 -1 -354 -38 -358 -43
-3 -3 53 -66 125 -141 72 -75 131 -139 131 -143 -1 -5 -18 -90 -39 -190 -21
-101 -37 -183 -35 -183 3 0 79 36 171 80 91 44 171 80 177 80 6 0 84 -43 174
-94 89 -52 162 -88 162 -82 0 7 -11 93 -25 192 -14 98 -25 180 -25 181 0 1 64
59 141 129 119 108 139 129 123 136 -11 4 -95 21 -188 38 -93 16 -170 31 -171
32 -1 2 -33 71 -70 153 -37 83 -73 161 -80 174 -12 23 -17 15 -104 -147z"/>
<path d="M610 8054 c-74 -102 -137 -190 -140 -194 -3 -5 -107 24 -230 64 -124
40 -227 72 -229 70 -2 -2 56 -85 128 -184 73 -100 135 -188 138 -195 3 -8 -52
-92 -124 -192 -71 -98 -133 -184 -138 -192 -9 -16 -23 -20 237 65 109 35 202
64 206 64 5 0 71 -86 148 -192 l139 -192 3 241 2 240 225 73 c123 41 222 76
219 79 -3 3 -103 38 -222 76 l-217 71 -5 242 -5 242 -135 -186z"/>
<path d="M4415 6023 c-126 -157 -233 -290 -237 -296 -6 -10 -94 21 -568 202
-85 32 -156 57 -158 56 -1 -1 25 -45 59 -96 77 -116 342 -520 352 -536 4 -7
-90 -132 -233 -309 -131 -164 -238 -299 -237 -301 2 -1 168 43 371 99 222 60
371 97 375 91 160 -247 415 -632 417 -631 1 2 10 174 20 383 9 209 18 381 18
382 1 1 161 45 356 98 195 54 361 100 368 104 8 5 -47 30 -140 65 -84 32 -243
92 -353 134 -110 41 -202 77 -204 78 -2 2 4 167 14 366 9 200 16 371 14 380
-3 11 -86 -86 -234 -269z"/>
</g>
</svg>
